<?xml version="1.0" standalone="no"?>
<!DOCTYPE svg PUBLIC "-//W3C//DTD SVG 1.1//EN" "http://www.w3.org/Graphics/SVG/1.1/DTD/svg11.dtd" >
<!--
2013-9-30: Created.
-->
<svg>
<metadata>
Created by iconfont
</metadata>
<defs>

<font id="iconfont" horiz-adv-x="1024" >
  <font-face
    font-family="iconfont"
    font-weight="500"
    font-stretch="normal"
    units-per-em="1024"
    ascent="896"
    descent="-128"
  />
    <missing-glyph />
    
    <glyph glyph-name="jiantou1" unicode="&#58892;" d="M151.476947 696.4460819999999l718.53082 0c39.763632 0 71.922053-31.909757 71.922053-71.675436 0-18.485003-7.095605-35.205826-18.486026-47.872311L568.114019 102.77294400000005c-23.810289-31.400151-68.641333-37.993313-100.29731-14.183024-5.570879 4.052293-10.384511 8.873088-14.183024 14.190187L94.235245 581.958584c-23.547299 31.407314-17.217127 76.479859 14.436804 100.041484 12.922311 9.881045 27.864628 14.43885 42.804898 14.43885l0 0L151.476947 696.4460819999999zM151.476947 696.4460819999999"  horiz-adv-x="1024" />

    
    <glyph glyph-name="dingwei" unicode="&#58884;" d="M523.636364-27.927273c-11.636364-9.309091-27.927273-9.309091-39.563637 0-230.4 218.763636-349.090909 393.309091-349.090909 530.618182 0 202.472727 165.236364 367.709091 367.709091 367.709091S870.4 705.163636 870.4 500.363636c0-134.981818-116.363636-309.527273-346.763636-528.290909zM814.545455 500.363636c0 172.218182-139.636364 311.854545-311.854546 311.854546S193.163636 672.581818 193.163636 500.363636c0-111.709091 102.4-269.963636 311.854546-470.109091C712.145455 232.727273 814.545455 390.981818 814.545455 500.363636z m0 0M505.018182 302.545455c-109.381818 0-197.818182 88.436364-197.818182 197.818181s88.436364 197.818182 197.818182 197.818182 197.818182-88.436364 197.818182-197.818182-88.436364-197.818182-197.818182-197.818181z m0 58.181818c79.127273 0 141.963636 62.836364 141.963636 141.963636 0 79.127273-62.836364 141.963636-141.963636 141.963636-79.127273 0-141.963636-62.836364-141.963637-141.963636 0-79.127273 62.836364-141.963636 141.963637-141.963636zM232.727273 153.6c16.290909 0 27.927273-9.309091 30.254545-25.6 2.327273-16.290909-9.309091-27.927273-25.6-30.254545-9.309091 0-18.618182-2.327273-27.927273-2.327273-20.945455-2.327273-39.563636-6.981818-60.50909-11.636364-44.218182-11.636364-69.818182-25.6-69.818182-32.581818 0-39.563636 200.145455-100.072727 423.563636-100.072727s423.563636 60.509091 423.563636 100.072727c0 6.981818-25.6 20.945455-69.818181 30.254545-18.618182 4.654545-39.563636 9.309091-60.509091 11.636364-9.309091 2.327273-18.618182 2.327273-27.927273 2.327273-16.290909 2.327273-27.927273 13.963636-25.6 30.254545 2.327273 16.290909 13.963636 27.927273 30.254545 25.6 6.981818 0 16.290909-2.327273 30.254546-2.327272 23.272727-2.327273 44.218182-6.981818 65.163636-11.636364 69.818182-16.290909 111.709091-41.890909 111.709091-86.109091 0-90.763636-223.418182-158.254545-481.745454-158.254545-256 0-481.745455 67.490909-481.745455 158.254545 0 44.218182 41.890909 69.818182 114.036364 88.436364 20.945455 4.654545 44.218182 9.309091 65.163636 13.963636 20.945455-2.327273 32.581818 0 37.236364 0z m0 0"  horiz-adv-x="1024" />

    
    <glyph glyph-name="chefuxuanzhong" unicode="&#58885;" d="M1168.695652 392.904348c44.521739 35.617391 55.652174 100.173913 55.652174 100.173913h-66.782609L1121.947826 811.408696C1110.817391 869.286957 1068.521739 896 1015.095652 896H387.33913c-53.426087 0-93.495652-28.93913-106.852173-84.591304L244.869565 493.078261H180.313043s11.130435-62.330435 53.426087-97.947826L207.026087 154.713043c0-73.46087 6.678261-129.113043 42.295652-155.826086v-91.269566c0-13.356522 11.130435-24.486957 24.486957-24.486956h144.695652c13.356522 0 24.486957 11.130435 24.486956 24.486956V-16.695652h523.130435v-75.686957c0-13.356522 11.130435-24.486957 24.486957-24.486956H1135.304348c13.356522 0 24.486957 11.130435 24.486956 24.486956v89.043479c40.069565 26.713043 40.069565 91.269565 40.069566 155.826087l-31.165218 240.417391z m-240.417391 111.304348c-4.452174-44.521739-44.521739-75.686957-89.043478-71.234783-6.678261 0-13.356522 2.226087-20.034783 4.452174l-53.426087-44.521739L890.434783 250.434783l-60.104348-51.2-124.66087 142.469565-51.2-44.521739c2.226087-8.904348 4.452174-20.034783 2.226087-31.165218-4.452174-42.295652-42.295652-73.46087-84.591304-71.234782l24.486956 42.295652-24.486956 35.617391-28.939131-8.904348-31.165217-37.843478c-13.356522 15.582609-20.034783 35.617391-17.808696 57.878261 4.452174 44.521739 44.521739 75.686957 89.043479 71.234783 6.678261 0 11.130435-2.226087 17.808695-4.452174l55.652174 46.747826-42.295652 48.973913-51.2-42.295652c-11.130435-8.904348-26.713043-8.904348-37.843478 2.226087L467.478261 475.269565c-8.904348 11.130435-8.904348 26.713043 2.226087 37.843478l151.373913 129.113044c11.130435 8.904348 26.713043 8.904348 37.843478-2.226087l60.104348-69.008696c8.904348-11.130435 8.904348-26.713043-2.226087-37.843478l-40.069565-33.391304 44.521739-48.973913 53.426087 44.521739c-2.226087 8.904348-4.452174 20.034783-2.226087 31.165217 4.452174 42.295652 42.295652 73.46087 84.591304 71.234783l-24.486956-42.295652 24.486956-35.617392 28.939131 8.904348 31.165217 40.069565c6.678261-22.26087 13.356522-42.295652 11.130435-64.556521z m0 0"  horiz-adv-x="1335" />

    
    <glyph glyph-name="shouyexuanzhong" unicode="&#58886;" d="M734.608696 875.965217c-31.165217 26.713043-77.913043 26.713043-106.852174 0L189.217391 459.686957c-15.582609-15.582609-17.808696-40.069565-2.226087-55.652174 15.582609-15.582609 40.069565-17.808696 55.652174-2.226087l6.678261 6.678261v-431.86087c0-22.26087 8.904348-42.295652 24.486957-57.878261 15.582609-15.582609 35.617391-24.486957 57.878261-24.486956h233.73913V136.904348c0 15.582609 6.678261 28.93913 15.582609 40.069565 11.130435 11.130435 24.486957 15.582609 40.069565 15.582609h111.304348c15.582609 0 28.93913-6.678261 40.069565-15.582609 11.130435-11.130435 15.582609-24.486957 15.582609-40.069565V-105.73913h240.417391c22.26087 0 42.295652 8.904348 57.878261 24.486956 15.582609 15.582609 24.486957 35.617391 24.486956 57.878261V401.808696c17.808696-15.582609 42.295652-15.582609 57.878261 2.226087 6.678261 8.904348 11.130435 17.808696 11.130435 28.93913s-4.452174 20.034783-13.356522 28.93913L734.608696 875.965217z m0 0"  horiz-adv-x="1335" />

    
    <glyph glyph-name="dianpuxuanzhong" unicode="&#58887;" d="M676.730435 372.869565c-6.678261-17.808696-6.678261-31.165217-8.904348-42.295652-40.069565-13.356522-71.234783-51.2-71.234783-95.721739v-347.269565H556.521739c-209.252174 0-436.313043 26.713043-436.313043 142.469565v31.165217c0 84.591304 155.826087 171.408696 287.165217 218.156522 8.904348 4.452174 55.652174 28.93913 28.93913 93.495652-64.556522 66.782609-115.756522 173.634783-115.756521 278.26087 0 162.504348 106.852174 244.869565 233.73913 244.869565s233.73913-84.591304 233.739131-244.869565c2.226087-106.852174-46.747826-211.478261-111.304348-278.26087z m0 0M1197.634783 101.286957h-4.452174l-66.782609 189.217391c-11.130435 33.391304-44.521739 57.878261-80.13913 57.878261H796.93913c-35.617391 0-69.008696-22.26087-80.13913-57.878261l-66.782609-189.217391H645.565217c-15.582609 0-26.713043-11.130435-26.713043-26.713044s11.130435-26.713043 26.713043-26.713043h4.452174v-129.113044c0-17.808696 13.356522-31.165217 33.391305-31.165217 17.808696 0 33.391304 13.356522 33.391304 31.165217v11.130435h414.052174v-11.130435c0-17.808696 13.356522-31.165217 33.391304-31.165217 17.808696 0 33.391304 13.356522 33.391305 31.165217v129.113044h4.452174c15.582609 0 26.713043 11.130435 26.713043 26.713043-4.452174 15.582609-15.582609 26.713043-31.165217 26.713044zM768-16.695652c-17.808696 0-33.391304 13.356522-33.391304 31.165217 0 17.808696 15.582609 31.165217 33.391304 31.165218s33.391304-13.356522 33.391304-31.165218c0-17.808696-15.582609-31.165217-33.391304-31.165217z m320.556522 4.452174c-11.130435-6.678261-22.26087-6.678261-33.391305 0s-15.582609 15.582609-15.582608 28.93913c0 17.808696 15.582609 31.165217 33.391304 31.165218s33.391304-13.356522 33.391304-31.165218c-2.226087-13.356522-8.904348-24.486957-17.808695-28.93913z m-11.130435 120.208695h-311.652174c-28.93913 0-51.2 28.93913-40.069565 57.878261l35.617391 93.495652c8.904348 28.93913 37.843478 46.747826 66.782609 46.747827h186.991304c31.165217 0 55.652174-17.808696 69.008696-46.747827l35.617391-93.495652c8.904348-28.93913-13.356522-57.878261-42.295652-57.878261z m0 0"  horiz-adv-x="1335" />

    
    <glyph glyph-name="sousuo" unicode="&#58888;" d="M221.866667 674.133333C146.773333 599.04 112.64 489.813333 133.12 384c20.48 88.746667 64.853333 174.08 136.533333 242.346667 71.68 71.68 157.013333 116.053333 242.346667 136.533333-102.4 17.066667-211.626667-10.24-290.133333-88.746667z m0 0M989.866667 73.386667l-122.88 122.88c-23.893333 23.893333-58.026667 37.546667-92.16 34.133333 116.053333 167.253333 98.986667 395.946667-47.786667 542.72-167.253333 167.253333-433.493333 167.253333-600.746667 0-167.253333-167.253333-167.253333-433.493333 0-600.746667 146.773333-146.773333 375.466667-163.84 542.72-47.786666-3.413333-34.133333 10.24-68.266667 34.133334-92.16l122.88-122.88c44.373333-44.373333 122.88-44.373333 167.253333 0 40.96 44.373333 40.96 119.466667-3.413333 163.84z m-314.026667 146.773333c-139.946667-139.946667-361.813333-139.946667-501.76 0S34.133333 581.973333 174.08 721.92s365.226667 139.946667 501.76 0c139.946667-139.946667 139.946667-361.813333 0-501.76z m0 0"  horiz-adv-x="1024" />

    
    <glyph glyph-name="shouyeweixuanzhong" unicode="&#58889;" d="M734.608696 875.965217c-31.165217 26.713043-77.913043 26.713043-106.852174 0L189.217391 459.686957c-15.582609-15.582609-17.808696-40.069565-2.226087-55.652174 15.582609-15.582609 40.069565-17.808696 55.652174-2.226087l6.678261 6.678261v-431.86087c0-22.26087 8.904348-42.295652 24.486957-57.878261 15.582609-15.582609 35.617391-24.486957 57.878261-24.486956h233.73913V136.904348c0 15.582609 6.678261 28.93913 15.582609 40.069565 11.130435 11.130435 24.486957 15.582609 40.069565 15.582609h111.304348c15.582609 0 28.93913-6.678261 40.069565-15.582609 11.130435-11.130435 15.582609-24.486957 15.582609-40.069565V-105.73913h240.417391c22.26087 0 42.295652 8.904348 57.878261 24.486956 15.582609 15.582609 24.486957 35.617391 24.486956 57.878261V401.808696c17.808696-15.582609 42.295652-15.582609 57.878261 2.226087 6.678261 8.904348 11.130435 17.808696 11.130435 28.93913s-4.452174 20.034783-13.356522 28.93913L734.608696 875.965217z m0 0"  horiz-adv-x="1335" />

    
    <glyph glyph-name="dianpuweixuanzhong" unicode="&#58890;" d="M676.730435 372.869565c-6.678261-17.808696-6.678261-31.165217-8.904348-42.295652-40.069565-13.356522-71.234783-51.2-71.234783-95.721739v-347.269565H556.521739c-209.252174 0-436.313043 26.713043-436.313043 142.469565v31.165217c0 84.591304 155.826087 171.408696 287.165217 218.156522 8.904348 4.452174 55.652174 28.93913 28.93913 93.495652-64.556522 66.782609-115.756522 173.634783-115.756521 278.26087 0 162.504348 106.852174 244.869565 233.73913 244.869565s233.73913-84.591304 233.739131-244.869565c2.226087-106.852174-46.747826-211.478261-111.304348-278.26087z m0 0M1197.634783 101.286957h-4.452174l-66.782609 189.217391c-11.130435 33.391304-44.521739 57.878261-80.13913 57.878261H796.93913c-35.617391 0-69.008696-22.26087-80.13913-57.878261l-66.782609-189.217391H645.565217c-15.582609 0-26.713043-11.130435-26.713043-26.713044s11.130435-26.713043 26.713043-26.713043h4.452174v-129.113044c0-17.808696 13.356522-31.165217 33.391305-31.165217 17.808696 0 33.391304 13.356522 33.391304 31.165217v11.130435h414.052174v-11.130435c0-17.808696 13.356522-31.165217 33.391304-31.165217 17.808696 0 33.391304 13.356522 33.391305 31.165217v129.113044h4.452174c15.582609 0 26.713043 11.130435 26.713043 26.713043-4.452174 15.582609-15.582609 26.713043-31.165217 26.713044zM768-16.695652c-17.808696 0-33.391304 13.356522-33.391304 31.165217 0 17.808696 15.582609 31.165217 33.391304 31.165218s33.391304-13.356522 33.391304-31.165218c0-17.808696-15.582609-31.165217-33.391304-31.165217z m320.556522 4.452174c-11.130435-6.678261-22.26087-6.678261-33.391305 0s-15.582609 15.582609-15.582608 28.93913c0 17.808696 15.582609 31.165217 33.391304 31.165218s33.391304-13.356522 33.391304-31.165218c-2.226087-13.356522-8.904348-24.486957-17.808695-28.93913z m-11.130435 120.208695h-311.652174c-28.93913 0-51.2 28.93913-40.069565 57.878261l35.617391 93.495652c8.904348 28.93913 37.843478 46.747826 66.782609 46.747827h186.991304c31.165217 0 55.652174-17.808696 69.008696-46.747827l35.617391-93.495652c8.904348-28.93913-13.356522-57.878261-42.295652-57.878261z m0 0"  horiz-adv-x="1335" />

    
    <glyph glyph-name="chefuweixuanzhong" unicode="&#58891;" d="M1168.695652 392.904348c44.521739 35.617391 55.652174 100.173913 55.652174 100.173913h-66.782609L1121.947826 811.408696C1110.817391 869.286957 1068.521739 896 1015.095652 896H387.33913c-53.426087 0-93.495652-28.93913-106.852173-84.591304L244.869565 493.078261H180.313043s11.130435-62.330435 53.426087-97.947826L207.026087 154.713043c0-73.46087 6.678261-129.113043 42.295652-155.826086v-91.269566c0-13.356522 11.130435-24.486957 24.486957-24.486956h144.695652c13.356522 0 24.486957 11.130435 24.486956 24.486956V-16.695652h523.130435v-75.686957c0-13.356522 11.130435-24.486957 24.486957-24.486956H1135.304348c13.356522 0 24.486957 11.130435 24.486956 24.486956v89.043479c40.069565 26.713043 40.069565 91.269565 40.069566 155.826087l-31.165218 240.417391z m-240.417391 111.304348c-4.452174-44.521739-44.521739-75.686957-89.043478-71.234783-6.678261 0-13.356522 2.226087-20.034783 4.452174l-53.426087-44.521739L890.434783 250.434783l-60.104348-51.2-124.66087 142.469565-51.2-44.521739c2.226087-8.904348 4.452174-20.034783 2.226087-31.165218-4.452174-42.295652-42.295652-73.46087-84.591304-71.234782l24.486956 42.295652-24.486956 35.617391-28.939131-8.904348-31.165217-37.843478c-13.356522 15.582609-20.034783 35.617391-17.808696 57.878261 4.452174 44.521739 44.521739 75.686957 89.043479 71.234783 6.678261 0 11.130435-2.226087 17.808695-4.452174l55.652174 46.747826-42.295652 48.973913-51.2-42.295652c-11.130435-8.904348-26.713043-8.904348-37.843478 2.226087L467.478261 475.269565c-8.904348 11.130435-8.904348 26.713043 2.226087 37.843478l151.373913 129.113044c11.130435 8.904348 26.713043 8.904348 37.843478-2.226087l60.104348-69.008696c8.904348-11.130435 8.904348-26.713043-2.226087-37.843478l-40.069565-33.391304 44.521739-48.973913 53.426087 44.521739c-2.226087 8.904348-4.452174 20.034783-2.226087 31.165217 4.452174 42.295652 42.295652 73.46087 84.591304 71.234783l-24.486956-42.295652 24.486956-35.617392 28.939131 8.904348 31.165217 40.069565c6.678261-22.26087 13.356522-42.295652 11.130435-64.556521z m0 0"  horiz-adv-x="1335" />

    
    <glyph glyph-name="chelingzuiduan" unicode="&#58899;" d="M849.493333 718.506667c-88.746667 88.746667-208.213333 139.946667-334.506666 139.946666-126.293333 0-245.76-47.786667-334.506667-139.946666C91.733333 629.76 40.533333 510.293333 40.533333 384c0-126.293333 47.786667-245.76 139.946667-334.506667 88.746667-88.746667 208.213333-139.946667 334.506667-139.946666 126.293333 0 245.76 47.786667 334.506666 139.946666 187.733333 180.906667 187.733333 481.28 0 669.013334z m-44.373333-628.053334c-78.506667-78.506667-180.906667-119.466667-293.546667-119.466666-109.226667 0-215.04 44.373333-293.546666 119.466666C142.933333 168.96 101.973333 271.36 101.973333 380.586667s44.373333 215.04 119.466667 293.546666C299.946667 752.64 405.76 793.6 514.986667 793.6c109.226667 0 215.04-44.373333 293.546666-119.466667 160.426667-160.426667 160.426667-423.253333-3.413333-583.68z m-85.333333 174.08l-163.84 95.573334V619.52c0 20.48-17.066667 40.96-40.96 40.96-20.48-3.413333-37.546667-20.48-37.546667-40.96v-276.48c0-13.653333 17.066667-27.306667 30.72-34.133333 3.413333-3.413333 13.653333-10.24 17.066667-13.653334l163.84-98.986666c20.48-10.24 40.96-3.413333 51.2 13.653333 10.24 20.48 0 44.373333-20.48 54.613333z m0 0"  horiz-adv-x="1024" />

    
    <glyph glyph-name="-jiageyougaodaodi" unicode="&#58900;" d="M788.48 547.84c3.413333-3.413333 3.413333-3.413333 6.826667-3.413333h13.653333c3.413333 0 3.413333 3.413333 6.826667 3.413333l109.226666 105.813333c6.826667 6.826667 6.826667 17.066667 0 23.893334-6.826667 6.826667-17.066667 6.826667-23.893333 0L819.2 602.453333V844.8c0 10.24-6.826667 17.066667-17.066667 17.066667s-17.066667-6.826667-17.066666-17.066667v-242.346667l-78.506667 75.093334c-6.826667 6.826667-17.066667 6.826667-23.893333 0-6.826667-6.826667-6.826667-17.066667 0-23.893334l105.813333-105.813333z m0 0M409.6 544.426667c-10.24 6.826667-27.306667 6.826667-34.133333-3.413334-6.826667-6.826667-6.826667-20.48-3.413334-30.72l3.413334-3.413333 116.053333-112.64v-27.306667H375.466667c-10.24-3.413333-17.066667-13.653333-17.066667-23.893333 0-10.24 6.826667-20.48 17.066667-23.893333h116.053333v-44.373334H375.466667c-10.24-3.413333-17.066667-13.653333-17.066667-23.893333 0-10.24 6.826667-20.48 17.066667-23.893333h116.053333V114.346667c3.413333-10.24 13.653333-17.066667 23.893333-17.066667 10.24 0 20.48 6.826667 23.893334 17.066667V226.986667h116.053333c10.24 3.413333 17.066667 13.653333 17.066667 23.893333 0 13.653333-10.24 23.893333-23.893334 23.893333h-105.813333V315.733333h116.053333c10.24 3.413333 17.066667 13.653333 17.066667 23.893334 0 13.653333-10.24 23.893333-23.893333 23.893333H546.133333v27.306667l92.16 92.16c-13.653333 10.24-23.893333 23.893333-34.133333 37.546666l-81.92-81.92-112.64 105.813334z m0 0M948.906667 418.133333h-54.613334c3.413333-23.893333 6.826667-51.2 6.826667-75.093333 0-221.866667-180.906667-402.773333-402.773333-402.773333-218.453333 0-399.36 180.906667-399.36 402.773333 0 221.866667 180.906667 402.773333 402.773333 402.773333 17.066667 0 34.133333 0 47.786667-3.413333 3.413333 17.066667 6.826667 34.133333 13.653333 51.2-20.48 3.413333-40.96 3.413333-61.44 3.413333C252.586667 797.013333 47.786667 592.213333 47.786667 343.04c0-249.173333 201.386667-453.973333 453.973333-453.973333C750.933333-110.933333 955.733333 90.453333 955.733333 343.04c0 23.893333-3.413333 51.2-6.826666 75.093333z m0 0"  horiz-adv-x="1024" />

    
    <glyph glyph-name="guanbi" unicode="&#58901;" d="M596.35249 378.114943l415.877395 415.877394c15.693487 15.693487 15.693487 54.927203 0 78.467433-15.693487 15.693487-54.927203 15.693487-78.467433 0L517.885057 456.582375 102.007663 872.45977C86.314176 888.153257 47.08046 888.153257 23.54023 872.45977c-15.693487-23.54023-15.693487-54.927203 0-78.467433l415.877395-415.877394-415.877395-415.877395c-15.693487-15.693487-15.693487-54.927203 0-78.467433 15.693487-15.693487 54.927203-15.693487 78.467433 0l415.877394 415.877395 415.877395-415.877395c15.693487-15.693487 54.927203-15.693487 78.467433 0 15.693487 15.693487 15.693487 54.927203 0 78.467433L596.35249 378.114943z m0 0"  horiz-adv-x="1027" />

    
    <glyph glyph-name="-jiageyoudidaogao" unicode="&#58902;" d="M682.666667 749.226667c-6.826667-6.826667-6.826667-17.066667 0-23.893334 6.826667-6.826667 17.066667-6.826667 23.893333 0L785.066667 800.426667v-242.346667c0-10.24 6.826667-17.066667 17.066666-17.066667s17.066667 6.826667 17.066667 17.066667V800.426667L897.706667 725.333333c6.826667-6.826667 17.066667-6.826667 23.893333 0 6.826667 6.826667 6.826667 17.066667 0 23.893334l-109.226667 105.813333c-3.413333 3.413333-3.413333 3.413333-6.826666 3.413333h-3.413334-3.413333-3.413333-3.413334c-3.413333 0-3.413333-3.413333-6.826666-3.413333l-102.4-105.813333z m105.813333 109.226666M409.6 544.426667c-10.24 6.826667-27.306667 6.826667-34.133333-3.413334-6.826667-6.826667-6.826667-20.48-3.413334-30.72l3.413334-3.413333 116.053333-112.64v-27.306667H375.466667c-10.24-3.413333-17.066667-13.653333-17.066667-23.893333 0-10.24 6.826667-20.48 17.066667-23.893333h116.053333v-44.373334H375.466667c-10.24-3.413333-17.066667-13.653333-17.066667-23.893333 0-10.24 6.826667-20.48 17.066667-23.893333h116.053333V114.346667c3.413333-10.24 13.653333-17.066667 23.893333-17.066667 10.24 0 20.48 6.826667 23.893334 17.066667V226.986667h116.053333c10.24 3.413333 17.066667 13.653333 17.066667 23.893333 0 13.653333-10.24 23.893333-23.893334 23.893333h-105.813333V315.733333h116.053333c10.24 3.413333 17.066667 13.653333 17.066667 23.893334 0 13.653333-10.24 23.893333-23.893333 23.893333H546.133333v27.306667l92.16 92.16c-13.653333 10.24-23.893333 23.893333-34.133333 37.546666l-81.92-81.92-112.64 105.813334z m0 0M948.906667 418.133333h-54.613334c3.413333-23.893333 6.826667-51.2 6.826667-75.093333 0-221.866667-180.906667-402.773333-402.773333-402.773333-218.453333 0-399.36 180.906667-399.36 402.773333 0 221.866667 180.906667 402.773333 402.773333 402.773333 17.066667 0 34.133333 0 47.786667-3.413333 3.413333 17.066667 6.826667 34.133333 13.653333 51.2-20.48 3.413333-40.96 3.413333-61.44 3.413333C252.586667 797.013333 47.786667 592.213333 47.786667 343.04c0-249.173333 201.386667-453.973333 453.973333-453.973333C750.933333-110.933333 955.733333 90.453333 955.733333 343.04c0 23.893333-3.413333 51.2-6.826666 75.093333z m0 0"  horiz-adv-x="1024" />

    
    <glyph glyph-name="-guanbi" unicode="&#58904;" d="M1609.870647 773.731343L947.58209-82.149254c-40.756219-61.134328-142.646766-61.134328-193.59204 0L112.079602 773.731343C71.323383 824.676617 122.268657 896 203.781095 896h1304.199005c91.701493 0 142.646766-71.323383 101.890547-122.268657z m0 0"  horiz-adv-x="1632" />

    
    <glyph glyph-name="-zuixinshangxian" unicode="&#58905;" d="M931.84 15.36H92.16c-10.24 0-20.48 6.826667-23.893333 13.653333-3.413333 10.24 0 20.48 6.826666 27.306667 47.786667 40.96 85.333333 129.706667 92.16 218.453333v133.12c0 112.64 27.306667 201.386667 85.333334 262.826667 58.026667 64.853333 146.773333 95.573333 259.413333 95.573333s201.386667-30.72 259.413333-95.573333c58.026667-61.44 85.333333-150.186667 85.333334-262.826667v-133.12c3.413333-88.746667 40.96-177.493333 88.746666-218.453333 6.826667-6.826667 10.24-17.066667 6.826667-27.306667-3.413333-6.826667-10.24-13.653333-20.48-13.653333z m-785.066667 47.786667h730.453334c-37.546667 54.613333-71.68 194.56-68.266667 211.626666v133.12c0 204.8-98.986667 310.613333-296.96 310.613334-197.973333 0-296.96-102.4-296.96-310.613334v-133.12c-3.413333-47.786667-13.653333-95.573333-30.72-139.946666-10.24-27.306667-23.893333-51.2-37.546667-71.68z m0 0M563.2 725.333333c-13.653333 0-23.893333 10.24-23.893333 23.893334V786.773333c0 6.826667-3.413333 13.653333-6.826667 17.066667-3.413333 3.413333-10.24 6.826667-17.066667 6.826667s-13.653333-3.413333-17.066666-6.826667c-3.413333-3.413333-6.826667-10.24-6.826667-17.066667v-37.546666c-3.413333-13.653333-13.653333-23.893333-27.306667-23.893334s-23.893333 10.24-23.893333 23.893334V786.773333c0 40.96 34.133333 71.68 75.093333 71.68 40.96 0 75.093333-30.72 75.093334-71.68v-37.546666c-3.413333-13.653333-13.653333-23.893333-27.306667-23.893334z m-37.546667-819.2c-54.613333 0-98.986667 40.96-98.986666 95.573334 0 10.24 3.413333 20.48 6.826666 30.72 3.413333 13.653333 20.48 20.48 30.72 13.653333 6.826667-3.413333 10.24-6.826667 13.653334-13.653333 3.413333-6.826667 3.413333-13.653333 0-17.066667-3.413333-3.413333-3.413333-10.24-3.413334-17.066667 0-27.306667 20.48-47.786667 47.786667-47.786666 27.306667 0 47.786667 20.48 47.786667 47.786666 0 6.826667 0 10.24-3.413334 17.066667s-3.413333 13.653333 0 17.066667c3.413333 6.826667 6.826667 10.24 13.653334 13.653333 13.653333 3.413333 27.306667-3.413333 30.72-13.653333 3.413333-10.24 6.826667-20.48 6.826666-30.72 6.826667-51.2-37.546667-95.573333-92.16-95.573334z m0 0"  horiz-adv-x="1024" />

    
    <glyph glyph-name="zhongzhi" unicode="&#58906;" d="M686.08 138.24c-56.32-40.96-117.76-56.32-184.32-56.32h-35.84c-5.12 0-15.36 0-20.48 5.12-5.12 0-10.24 0-10.24 5.12-5.12 0-10.24 5.12-20.48 5.12-5.12 0-5.12 0-10.24 5.12-5.12 0-15.36 5.12-20.48 10.24h-5.12c-10.24 5.12-15.36 10.24-25.6 10.24-25.6 15.36-51.2 30.72-71.68 56.32-5.12 5.12-10.24 15.36-20.48 20.48 0 0 0 5.12-5.12 5.12-40.96 56.32-66.56 122.88-66.56 199.68h81.92l-133.12 204.8-133.12-204.8h81.92c0-87.04 25.6-174.08 71.68-240.64v-5.12c5.12-5.12 10.24-15.36 15.36-20.48l5.12-5.12c5.12-10.24 15.36-20.48 25.6-25.6 25.6-30.72 56.32-51.2 92.16-71.68h5.12l30.72-15.36c5.12 0 5.12 0 5.12-5.12 10.24-5.12 15.36-5.12 25.6-10.24 5.12 0 10.24-5.12 10.24-5.12 10.24 0 15.36-5.12 25.6-5.12 5.12 0 10.24-5.12 15.36-5.12h5.12c10.24 0 15.36 0 20.48-5.12h51.2c81.92 0 163.84 25.6 235.52 76.8 20.48 15.36 25.6 46.08 10.24 71.68 0 15.36-30.72 20.48-51.2 5.12z m245.76 230.4c0 87.04-25.6 168.96-71.68 240.64v5.12c-5.12 10.24-10.24 15.36-20.48 25.6v5.12c-40.96 51.2-92.16 92.16-153.6 117.76h-5.12c-10.24 5.12-20.48 5.12-30.72 10.24-5.12 0-5.12 0-10.24 5.12-10.24 5.12-15.36 5.12-25.6 5.12-5.12 0-10.24 0-15.36 5.12h-5.12c-5.12 0-15.36 0-20.48 5.12H527.36h-5.12c-87.04 0-168.96-25.6-240.64-76.8-20.48-15.36-25.6-46.08-10.24-71.68 15.36-20.48 46.08-30.72 66.56-10.24C394.24 670.72 455.68 691.2 522.24 691.2h35.84c5.12 0 15.36 0 20.48-5.12h10.24c5.12 0 15.36-5.12 20.48-5.12h5.12c10.24-5.12 15.36-5.12 25.6-10.24 46.08-20.48 87.04-51.2 117.76-92.16 46.08-56.32 71.68-128 71.68-204.8h-81.92l133.12-204.8 133.12 204.8h-81.92z m0 0"  horiz-adv-x="1024" />

    
    <glyph glyph-name="wushiguche" unicode="&#58908;" d="M252.547206 201.495183c-76.947977 0-138.111753-61.163776-138.111753-138.111753s61.163776-138.111753 138.111753-138.111754 138.111753 61.163776 138.111754 138.111754-63.136802 138.111753-138.111754 138.111753z m0-201.248555c-35.514451 0-63.136802 27.622351-63.136801 63.136802 0 35.514451 27.622351 63.136802 63.136801 63.136801 35.514451 0 63.136802-27.622351 63.136802-63.136801 0-35.514451-27.622351-63.136802-63.136802-63.136802zM868.131021 106.789981c0 17.757225 1.973025 33.541426 5.919075 49.325626-21.703276-23.676301-35.514451-57.217726-35.514451-92.732177 0-67.082852 47.352601-122.327553 110.489403-136.138729-49.325626 45.379576-80.894027 108.516378-80.894027 179.54528zM895.753372 215.306358H398.55106c-9.865125 0-17.757225 5.919075-17.757226 17.757226V665.156069c-3.94605 5.919075-11.83815 7.8921-19.73025 7.892101H151.922929c-5.919075 0-11.83815-1.973025-15.784201-5.919076-3.94605-3.94605-102.597303-80.894027-102.597302-232.816955v-195.32948c-3.94605-3.94605-5.919075-9.865125-5.919075-17.757225V87.05973c0-13.811175 11.83815-25.649326 25.649325-25.649325h27.622351v3.94605c0 7.8921 3.94605 41.433526 7.8921 49.325626 9.865125 31.568401 51.298651 124.300578 163.761079 124.300578 112.462428 0 155.868979-90.759152 163.761079-124.300578 1.973025-7.8921 7.8921-41.433526 7.8921-49.325626v-3.94605h382.76686c-1.973025 37.487476 3.94605 122.327553 88.786127 153.895953zM335.414258 467.853565H86.813102c9.865125 86.813102 57.217726 138.111753 74.974952 153.895953H335.414258v-153.895953zM1104.894027 343.552987c71.028902 0 134.165703-31.568401 177.572254-80.894027V830.890173c0 13.811175-11.83815 25.649326-25.649325 25.649326H439.984586c-13.811175 0-25.649326-11.83815-25.649326-25.649326v-580.069364h503.121387c43.406551 57.217726 110.489403 92.732177 187.43738 92.732178zM1110.813102-92.485549c-112.462428 0-203.22158 90.759152-203.22158 203.22158s90.759152 203.22158 203.22158 203.22158 203.22158-90.759152 203.22158-203.22158S1223.27553-92.485549 1110.813102-92.485549z m0 374.874759c-94.705202 0-173.626204-76.947977-173.626204-173.626204s76.947977-173.626204 173.626204-173.626204 173.626204 76.947977 173.626204 173.626204-76.947977 173.626204-173.626204 173.626204zM1022.026975 207.414258h173.626204v-23.6763h-82.867052v-13.811176c0-13.811175-1.973025-25.649326-1.973025-35.514451h104.570328v-23.6763H1144.354528v-73.001927c0-7.8921 3.94605-11.83815 9.865125-11.83815h25.649326c3.94605 0 7.8921 1.973025 9.865125 5.919075 1.973025 3.94605 3.94605 13.811175 5.919075 31.568401l23.676301-7.892101c-1.973025-25.649326-5.919075-41.433526-11.838151-45.379576-3.94605-3.94605-11.83815-5.919075-21.703275-5.919075h-37.487476c-17.757225 0-27.622351 9.865125-27.622351 29.595376v78.921002h-11.83815c-3.94605-19.73025-9.865125-37.487476-17.757225-53.271676-13.811175-25.649326-37.487476-45.379576-71.028902-59.190752l-13.811175 21.703276c31.568401 15.7842 55.244701 33.541426 65.109826 55.244701 3.94605 9.865125 7.8921 21.703276 11.83815 33.541426h-73.001926v23.6763H1085.163776c1.973025 11.83815 1.973025 23.676301 1.973026 35.514451v13.811176h-65.109827v23.6763z"  horiz-adv-x="1341" />

    
    <glyph glyph-name="yiquanmianjiance" unicode="&#58909;" d="M252.547206 201.495183c-76.947977 0-138.111753-61.163776-138.111753-138.111753s61.163776-138.111753 138.111753-138.111754 138.111753 61.163776 138.111754 138.111754-63.136802 138.111753-138.111754 138.111753z m0-201.248555c-35.514451 0-63.136802 27.622351-63.136801 63.136802 0 35.514451 27.622351 63.136802 63.136801 63.136801 35.514451 0 63.136802-27.622351 63.136802-63.136801 0-35.514451-27.622351-63.136802-63.136802-63.136802zM868.131021 106.789981c0 17.757225 1.973025 33.541426 5.919075 49.325626-21.703276-23.676301-35.514451-57.217726-35.514451-92.732177 0-67.082852 47.352601-122.327553 110.489403-136.138729-49.325626 45.379576-80.894027 108.516378-80.894027 179.54528zM895.753372 215.306358H398.55106c-9.865125 0-17.757225 5.919075-17.757226 17.757226V665.156069c-3.94605 5.919075-11.83815 7.8921-19.73025 7.892101H151.922929c-5.919075 0-11.83815-1.973025-15.784201-5.919076-3.94605-3.94605-102.597303-80.894027-102.597302-232.816955v-195.32948c-3.94605-3.94605-5.919075-9.865125-5.919075-17.757225V87.05973c0-13.811175 11.83815-25.649326 25.649325-25.649325h27.622351v3.94605c0 7.8921 3.94605 41.433526 7.8921 49.325626 9.865125 31.568401 51.298651 124.300578 163.761079 124.300578 112.462428 0 155.868979-90.759152 163.761079-124.300578 1.973025-7.8921 7.8921-41.433526 7.8921-49.325626v-3.94605h382.76686c-1.973025 37.487476 3.94605 122.327553 88.786127 153.895953zM335.414258 467.853565H86.813102c9.865125 86.813102 57.217726 138.111753 74.974952 153.895953H335.414258v-153.895953zM1104.894027 343.552987c71.028902 0 134.165703-31.568401 177.572254-80.894027V830.890173c0 13.811175-11.83815 25.649326-25.649325 25.649326H439.984586c-13.811175 0-25.649326-11.83815-25.649326-25.649326v-580.069364h503.121387c43.406551 57.217726 110.489403 92.732177 187.43738 92.732178zM1110.813102-92.485549c-112.462428 0-203.22158 90.759152-203.22158 203.22158s90.759152 203.22158 203.22158 203.22158 203.22158-90.759152 203.22158-203.22158S1223.27553-92.485549 1110.813102-92.485549z m0 374.874759c-94.705202 0-173.626204-76.947977-173.626204-173.626204s76.947977-173.626204 173.626204-173.626204 173.626204 76.947977 173.626204 173.626204-76.947977 173.626204-173.626204 173.626204zM1006.242775 173.872832h27.62235v43.406551h23.676301v-43.406551h21.703275v-23.6763h-21.703275v-9.865125c9.865125-9.865125 19.73025-19.73025 27.62235-31.568401l-13.811175-21.703276c-5.919075 9.865125-9.865125 19.73025-13.811175 25.649326v-116.408478h-23.676301v100.624277c-5.919075-17.757225-13.811175-33.541426-21.703275-49.325626l-9.865126 27.622351c13.811175 21.703276 25.649326 45.379576 31.568401 71.028902H1006.242775v27.62235z m106.543352-33.541425c-7.8921-7.8921-15.7842-13.811175-23.6763-19.730251l-13.811176 21.703276c27.622351 19.73025 47.352601 43.406551 63.136802 74.974951h23.6763c11.83815-27.622351 33.541426-53.271676 63.136802-74.974951l-13.811175-21.703276c-7.8921 5.919075-15.7842 11.83815-23.676301 19.730251v-11.838151h-73.001927v11.838151zM1079.244701 27.868979h80.894027c7.8921 23.676301 15.7842 53.271676 23.676301 88.786127l23.6763-5.919075c-5.919075-31.568401-13.811175-59.190751-21.703275-82.867052h31.568401v-23.676301h-138.111754V27.868979z m33.541426 82.867052c5.919075-17.757225 11.83815-41.433526 15.784201-69.055877l-21.703276-5.919075c-3.94605 21.703276-9.865125 45.379576-15.7842 67.082852l21.703275 7.8921z m63.136802 39.460501c-11.83815 11.83815-19.73025 25.649326-27.622351 41.433526-7.8921-15.7842-17.757225-29.595376-27.622351-41.433526h55.244702z m-29.595376-29.595376c5.919075-19.73025 11.83815-41.433526 15.7842-67.082852l-21.703275-5.919075c-3.94605 21.703276-7.8921 43.406551-13.811175 65.109827l19.73025 7.8921z"  horiz-adv-x="1341" />

    
    <glyph glyph-name="daibanguohu" unicode="&#58910;" d="M252.547206 201.495183c-76.947977 0-138.111753-61.163776-138.111753-138.111753s61.163776-138.111753 138.111753-138.111754 138.111753 61.163776 138.111754 138.111754-63.136802 138.111753-138.111754 138.111753z m0-201.248555c-35.514451 0-63.136802 27.622351-63.136801 63.136802 0 35.514451 27.622351 63.136802 63.136801 63.136801 35.514451 0 63.136802-27.622351 63.136802-63.136801 0-35.514451-27.622351-63.136802-63.136802-63.136802zM868.131021 106.789981c0 17.757225 1.973025 33.541426 5.919075 49.325626-21.703276-23.676301-35.514451-57.217726-35.514451-92.732177 0-67.082852 47.352601-122.327553 110.489403-136.138729-49.325626 45.379576-80.894027 108.516378-80.894027 179.54528zM895.753372 215.306358H398.55106c-9.865125 0-17.757225 5.919075-17.757226 17.757226V665.156069c-3.94605 5.919075-11.83815 7.8921-19.73025 7.892101H151.922929c-5.919075 0-11.83815-1.973025-15.784201-5.919076-3.94605-3.94605-102.597303-80.894027-102.597302-232.816955v-195.32948c-3.94605-3.94605-5.919075-9.865125-5.919075-17.757225V87.05973c0-13.811175 11.83815-25.649326 25.649325-25.649325h27.622351v3.94605c0 7.8921 3.94605 41.433526 7.8921 49.325626 9.865125 31.568401 51.298651 124.300578 163.761079 124.300578 112.462428 0 155.868979-90.759152 163.761079-124.300578 1.973025-7.8921 7.8921-41.433526 7.8921-49.325626v-3.94605h382.76686c-1.973025 37.487476 3.94605 122.327553 88.786127 153.895953zM335.414258 467.853565H86.813102c9.865125 86.813102 57.217726 138.111753 74.974952 153.895953H335.414258v-153.895953zM1104.894027 343.552987c71.028902 0 134.165703-31.568401 177.572254-80.894027V830.890173c0 13.811175-11.83815 25.649326-25.649325 25.649326H439.984586c-13.811175 0-25.649326-11.83815-25.649326-25.649326v-580.069364h503.121387c43.406551 57.217726 110.489403 92.732177 187.43738 92.732178zM1110.813102-92.485549c-112.462428 0-203.22158 90.759152-203.22158 203.22158s90.759152 203.22158 203.22158 203.22158 203.22158-90.759152 203.22158-203.22158S1223.27553-92.485549 1110.813102-92.485549z m0 374.874759c-94.705202 0-173.626204-76.947977-173.626204-173.626204s76.947977-173.626204 173.626204-173.626204 173.626204 76.947977 173.626204 173.626204-76.947977 173.626204-173.626204 173.626204zM1029.919075 120.601156c-7.8921-9.865125-13.811175-17.757225-21.703275-23.676301l-7.892101 25.649326c23.676301 27.622351 41.433526 59.190751 53.271677 94.705202l23.6763-11.83815c-5.919075-17.757225-13.811175-33.541426-21.703275-49.325626v-159.815029h-25.649326v124.300578z m179.54528 43.406551l3.94605-23.6763-74.974952-9.865126c1.973025-11.83815 1.973025-23.676301 3.94605-31.5684 5.919075-25.649326 11.83815-43.406551 21.703275-57.217727 7.8921-11.83815 15.7842-17.757225 23.676301-19.73025 5.919075 0 9.865125 13.811175 11.83815 41.433526l21.703276-11.838151c-3.94605-19.73025-7.8921-33.541426-13.811176-43.406551-3.94605-7.8921-11.83815-11.83815-19.73025-11.83815-11.83815 0-23.676301 7.8921-37.487476 23.676301-13.811175 15.7842-23.676301 37.487476-31.568401 65.109826-1.973025 9.865125-3.94605 23.676301-5.919075 39.460501l-47.352601-3.94605-3.94605 23.676301 51.298651 7.8921c-1.973025 19.73025-1.973025 41.433526-1.973025 67.082851h25.649326c0-23.676301 0-45.379576 1.973025-63.136801l71.028902 7.8921z m-51.298652 53.271676c13.811175-11.83815 25.649326-23.676301 35.514451-35.51445l-15.7842-15.784201c-7.8921 11.83815-19.73025 23.676301-35.514451 35.514451l15.7842 15.7842z"  horiz-adv-x="1341" />

    
    <glyph glyph-name="songshouhouzhibao" unicode="&#58911;" d="M252.547206 201.495183c-76.947977 0-138.111753-61.163776-138.111753-138.111753s61.163776-138.111753 138.111753-138.111754 138.111753 61.163776 138.111754 138.111754-63.136802 138.111753-138.111754 138.111753z m0-201.248555c-35.514451 0-63.136802 27.622351-63.136801 63.136802 0 35.514451 27.622351 63.136802 63.136801 63.136801 35.514451 0 63.136802-27.622351 63.136802-63.136801 0-35.514451-27.622351-63.136802-63.136802-63.136802zM868.131021 106.789981c0 17.757225 1.973025 33.541426 5.919075 49.325626-21.703276-23.676301-35.514451-57.217726-35.514451-92.732177 0-67.082852 47.352601-122.327553 110.489403-136.138729-49.325626 45.379576-80.894027 108.516378-80.894027 179.54528zM895.753372 215.306358H398.55106c-9.865125 0-17.757225 5.919075-17.757226 17.757226V665.156069c-3.94605 5.919075-11.83815 7.8921-19.73025 7.892101H151.922929c-5.919075 0-11.83815-1.973025-15.784201-5.919076-3.94605-3.94605-102.597303-80.894027-102.597302-232.816955v-195.32948c-3.94605-3.94605-5.919075-9.865125-5.919075-17.757225V87.05973c0-13.811175 11.83815-25.649326 25.649325-25.649325h27.622351v3.94605c0 7.8921 3.94605 41.433526 7.8921 49.325626 9.865125 31.568401 51.298651 124.300578 163.761079 124.300578 112.462428 0 155.868979-90.759152 163.761079-124.300578 1.973025-7.8921 7.8921-41.433526 7.8921-49.325626v-3.94605h382.76686c-1.973025 37.487476 3.94605 122.327553 88.786127 153.895953zM335.414258 467.853565H86.813102c9.865125 86.813102 57.217726 138.111753 74.974952 153.895953H335.414258v-153.895953zM1104.894027 343.552987c71.028902 0 134.165703-31.568401 177.572254-80.894027V830.890173c0 13.811175-11.83815 25.649326-25.649325 25.649326H439.984586c-13.811175 0-25.649326-11.83815-25.649326-25.649326v-580.069364h503.121387c43.406551 57.217726 110.489403 92.732177 187.43738 92.732178zM1110.813102-92.485549c-112.462428 0-203.22158 90.759152-203.22158 203.22158s90.759152 203.22158 203.22158 203.22158 203.22158-90.759152 203.22158-203.22158S1223.27553-92.485549 1110.813102-92.485549z m0 374.874759c-94.705202 0-173.626204-76.947977-173.626204-173.626204s76.947977-173.626204 173.626204-173.626204 173.626204 76.947977 173.626204 173.626204-76.947977 173.626204-173.626204 173.626204zM1073.325626 209.387283c-5.919075-15.7842-11.83815-33.541426-19.73025-47.352601v-161.788054h-25.649326v124.300578c-5.919075-7.8921-13.811175-15.7842-19.73025-23.6763l-7.892101 25.649325c23.676301 27.622351 39.460501 59.190751 51.298652 94.705203l21.703275-11.838151z m9.865125-1.973025h116.408478V126.520231h-45.379576v-17.757225h65.109827v-23.676301h-43.406551c11.83815-19.73025 27.622351-37.487476 49.325626-53.271676l-15.7842-21.703276c-21.703276 19.73025-39.460501 45.379576-53.271677 74.974952h-1.973025v-86.813102h-23.6763v86.813102h-1.973025c-13.811175-31.568401-31.568401-57.217726-53.271677-74.974952l-13.811175 21.703276c19.73025 13.811175 35.514451 31.568401 47.352601 53.271676H1065.433526v23.676301h63.136802V126.520231h-45.379577v80.894027z m90.759153-55.244701V185.710983h-67.082852v-33.541426h67.082852z"  horiz-adv-x="1341" />

    
    <glyph glyph-name="-jiantouxiangshang" unicode="&#58912;" d="M1617.92-5.12c40.96-51.2-10.24-122.88-92.16-122.88H204.8c-81.92 0-133.12 71.68-92.16 122.88L768 855.04c40.96 61.44 143.36 61.44 194.56 0l655.36-860.16z"  horiz-adv-x="1638" />

    
    <glyph glyph-name="wuyoutuiche" unicode="&#58913;" d="M252.547206 201.495183c-76.947977 0-138.111753-61.163776-138.111753-138.111753s61.163776-138.111753 138.111753-138.111754 138.111753 61.163776 138.111754 138.111754-63.136802 138.111753-138.111754 138.111753z m0-201.248555c-35.514451 0-63.136802 27.622351-63.136801 63.136802 0 35.514451 27.622351 63.136802 63.136801 63.136801 35.514451 0 63.136802-27.622351 63.136802-63.136801 0-35.514451-27.622351-63.136802-63.136802-63.136802zM868.131021 106.789981c0 17.757225 1.973025 33.541426 5.919075 49.325626-21.703276-23.676301-35.514451-57.217726-35.514451-92.732177 0-67.082852 47.352601-122.327553 110.489403-136.138729-49.325626 45.379576-80.894027 108.516378-80.894027 179.54528zM895.753372 215.306358H398.55106c-9.865125 0-17.757225 5.919075-17.757226 17.757226V665.156069c-3.94605 5.919075-11.83815 7.8921-19.73025 7.892101H151.922929c-5.919075 0-11.83815-1.973025-15.784201-5.919076-3.94605-3.94605-102.597303-80.894027-102.597302-232.816955v-195.32948c-3.94605-3.94605-5.919075-9.865125-5.919075-17.757225V87.05973c0-13.811175 11.83815-25.649326 25.649325-25.649325h27.622351v3.94605c0 7.8921 3.94605 41.433526 7.8921 49.325626 9.865125 31.568401 51.298651 124.300578 163.761079 124.300578 112.462428 0 155.868979-90.759152 163.761079-124.300578 1.973025-7.8921 7.8921-41.433526 7.8921-49.325626v-3.94605h382.76686c-1.973025 37.487476 3.94605 122.327553 88.786127 153.895953zM335.414258 467.853565H86.813102c9.865125 86.813102 57.217726 138.111753 74.974952 153.895953H335.414258v-153.895953zM1104.894027 343.552987c71.028902 0 134.165703-31.568401 177.572254-80.894027V830.890173c0 13.811175-11.83815 25.649326-25.649325 25.649326H439.984586c-13.811175 0-25.649326-11.83815-25.649326-25.649326v-580.069364h503.121387c43.406551 57.217726 110.489403 92.732177 187.43738 92.732178zM1110.813102-92.485549c-112.462428 0-203.22158 90.759152-203.22158 203.22158s90.759152 203.22158 203.22158 203.22158 203.22158-90.759152 203.22158-203.22158S1223.27553-92.485549 1110.813102-92.485549z m0 374.874759c-94.705202 0-173.626204-76.947977-173.626204-173.626204s76.947977-173.626204 173.626204-173.626204 173.626204 76.947977 173.626204 173.626204-76.947977 173.626204-173.626204 173.626204zM1160.138728 2.219653h-41.433526c-15.7842 0-27.622351 1.973025-37.487476 3.94605s-17.757225 7.8921-25.649325 15.784201c-3.94605 3.94605-5.919075 5.919075-7.8921 5.919075-3.94605 0-13.811175-9.865125-23.676301-31.568401l-17.757225 17.757225c11.83815 19.73025 21.703276 31.568401 31.5684 35.514451v65.109827H1006.242775v23.676301h53.271676V47.599229l1.973025-1.973025c5.919075-5.919075 11.83815-11.83815 15.7842-13.811175 5.919075-3.94605 17.757225-5.919075 31.568401-5.919075h82.867052c11.83815 0 21.703276 0 27.622351 1.973025l-5.919075-23.676301h-53.271677zM1025.973025 215.306358c15.7842-11.83815 29.595376-23.676301 39.460501-37.487476l-17.757225-17.757225c-9.865125 11.83815-21.703276 23.676301-39.460501 37.487476l17.757225 17.757225z m82.867052-98.651252v-53.271676c11.83815 1.973025 25.649326 5.919075 39.460501 9.865125l5.919075-21.703276c-19.73025-5.919075-43.406551-9.865125-73.001927-13.811175l-5.919075 21.703276c5.919075 1.973025 7.8921 5.919075 7.8921 9.865125v144.030828h118.381503v-94.705202h-92.732177z m71.028902 57.217726v15.784201h-71.028902v-15.784201h71.028902z m-71.028902-21.703275v-15.784201h71.028902v15.784201h-71.028902z m29.595376-39.460501c11.83815-5.919075 23.676301-13.811175 33.541426-19.730251 7.8921 5.919075 13.811175 13.811175 19.73025 19.730251l17.757226-13.811175c-5.919075-5.919075-11.83815-13.811175-19.730251-19.730251 11.83815-7.8921 19.73025-15.7842 29.595376-23.676301l-15.784201-19.73025c-21.703276 21.703276-47.352601 41.433526-78.921002 59.190751l13.811176 17.757226z"  horiz-adv-x="1341" />

    
    <glyph glyph-name="dingwei1" unicode="&#58914;" d="M523.636364-27.927273c-11.636364-9.309091-27.927273-9.309091-39.563637 0-230.4 218.763636-349.090909 393.309091-349.090909 530.618182 0 202.472727 165.236364 367.709091 367.709091 367.709091S870.4 705.163636 870.4 500.363636c0-134.981818-116.363636-309.527273-346.763636-528.290909zM814.545455 500.363636c0 172.218182-139.636364 311.854545-311.854546 311.854546S193.163636 672.581818 193.163636 500.363636c0-111.709091 102.4-269.963636 311.854546-470.109091C712.145455 232.727273 814.545455 390.981818 814.545455 500.363636z m0 0M505.018182 302.545455c-109.381818 0-197.818182 88.436364-197.818182 197.818181s88.436364 197.818182 197.818182 197.818182 197.818182-88.436364 197.818182-197.818182-88.436364-197.818182-197.818182-197.818181z m0 58.181818c79.127273 0 141.963636 62.836364 141.963636 141.963636 0 79.127273-62.836364 141.963636-141.963636 141.963636-79.127273 0-141.963636-62.836364-141.963637-141.963636 0-79.127273 62.836364-141.963636 141.963637-141.963636zM232.727273 153.6c16.290909 0 27.927273-9.309091 30.254545-25.6 2.327273-16.290909-9.309091-27.927273-25.6-30.254545-9.309091 0-18.618182-2.327273-27.927273-2.327273-20.945455-2.327273-39.563636-6.981818-60.50909-11.636364-44.218182-11.636364-69.818182-25.6-69.818182-32.581818 0-39.563636 200.145455-100.072727 423.563636-100.072727s423.563636 60.509091 423.563636 100.072727c0 6.981818-25.6 20.945455-69.818181 30.254545-18.618182 4.654545-39.563636 9.309091-60.509091 11.636364-9.309091 2.327273-18.618182 2.327273-27.927273 2.327273-16.290909 2.327273-27.927273 13.963636-25.6 30.254545 2.327273 16.290909 13.963636 27.927273 30.254545 25.6 6.981818 0 16.290909-2.327273 30.254546-2.327272 23.272727-2.327273 44.218182-6.981818 65.163636-11.636364 69.818182-16.290909 111.709091-41.890909 111.709091-86.109091 0-90.763636-223.418182-158.254545-481.745454-158.254545-256 0-481.745455 67.490909-481.745455 158.254545 0 44.218182 41.890909 69.818182 114.036364 88.436364 20.945455 4.654545 44.218182 9.309091 65.163636 13.963636 20.945455-2.327273 32.581818 0 37.236364 0z m0 0"  horiz-adv-x="1024" />

    
    <glyph glyph-name="sousuo1" unicode="&#58915;" d="M221.866667 674.133333C146.773333 599.04 112.64 489.813333 133.12 384c20.48 88.746667 64.853333 174.08 136.533333 242.346667 71.68 71.68 157.013333 116.053333 242.346667 136.533333-102.4 17.066667-211.626667-10.24-290.133333-88.746667z m0 0M989.866667 73.386667l-122.88 122.88c-23.893333 23.893333-58.026667 37.546667-92.16 34.133333 116.053333 167.253333 98.986667 395.946667-47.786667 542.72-167.253333 167.253333-433.493333 167.253333-600.746667 0-167.253333-167.253333-167.253333-433.493333 0-600.746667 146.773333-146.773333 375.466667-163.84 542.72-47.786666-3.413333-34.133333 10.24-68.266667 34.133334-92.16l122.88-122.88c44.373333-44.373333 122.88-44.373333 167.253333 0 40.96 44.373333 40.96 119.466667-3.413333 163.84z m-314.026667 146.773333c-139.946667-139.946667-361.813333-139.946667-501.76 0S34.133333 581.973333 174.08 721.92s365.226667 139.946667 501.76 0c139.946667-139.946667 139.946667-361.813333 0-501.76z m0 0"  horiz-adv-x="1024" />

    
    <glyph glyph-name="dianpuxuanzhong1" unicode="&#58916;" d="M676.730435 372.869565c-6.678261-17.808696-6.678261-31.165217-8.904348-42.295652-40.069565-13.356522-71.234783-51.2-71.234783-95.721739v-347.269565H556.521739c-209.252174 0-436.313043 26.713043-436.313043 142.469565v31.165217c0 84.591304 155.826087 171.408696 287.165217 218.156522 8.904348 4.452174 55.652174 28.93913 28.93913 93.495652-64.556522 66.782609-115.756522 173.634783-115.756521 278.26087 0 162.504348 106.852174 244.869565 233.73913 244.869565s233.73913-84.591304 233.739131-244.869565c2.226087-106.852174-46.747826-211.478261-111.304348-278.26087z m0 0M1197.634783 101.286957h-4.452174l-66.782609 189.217391c-11.130435 33.391304-44.521739 57.878261-80.13913 57.878261H796.93913c-35.617391 0-69.008696-22.26087-80.13913-57.878261l-66.782609-189.217391H645.565217c-15.582609 0-26.713043-11.130435-26.713043-26.713044s11.130435-26.713043 26.713043-26.713043h4.452174v-129.113044c0-17.808696 13.356522-31.165217 33.391305-31.165217 17.808696 0 33.391304 13.356522 33.391304 31.165217v11.130435h414.052174v-11.130435c0-17.808696 13.356522-31.165217 33.391304-31.165217 17.808696 0 33.391304 13.356522 33.391305 31.165217v129.113044h4.452174c15.582609 0 26.713043 11.130435 26.713043 26.713043-4.452174 15.582609-15.582609 26.713043-31.165217 26.713044zM768-16.695652c-17.808696 0-33.391304 13.356522-33.391304 31.165217 0 17.808696 15.582609 31.165217 33.391304 31.165218s33.391304-13.356522 33.391304-31.165218c0-17.808696-15.582609-31.165217-33.391304-31.165217z m320.556522 4.452174c-11.130435-6.678261-22.26087-6.678261-33.391305 0s-15.582609 15.582609-15.582608 28.93913c0 17.808696 15.582609 31.165217 33.391304 31.165218s33.391304-13.356522 33.391304-31.165218c-2.226087-13.356522-8.904348-24.486957-17.808695-28.93913z m-11.130435 120.208695h-311.652174c-28.93913 0-51.2 28.93913-40.069565 57.878261l35.617391 93.495652c8.904348 28.93913 37.843478 46.747826 66.782609 46.747827h186.991304c31.165217 0 55.652174-17.808696 69.008696-46.747827l35.617391-93.495652c8.904348-28.93913-13.356522-57.878261-42.295652-57.878261z m0 0"  horiz-adv-x="1335" />

    
    <glyph glyph-name="chefuxuanzhong1" unicode="&#58917;" d="M1168.695652 392.904348c44.521739 35.617391 55.652174 100.173913 55.652174 100.173913h-66.782609L1121.947826 811.408696C1110.817391 869.286957 1068.521739 896 1015.095652 896H387.33913c-53.426087 0-93.495652-28.93913-106.852173-84.591304L244.869565 493.078261H180.313043s11.130435-62.330435 53.426087-97.947826L207.026087 154.713043c0-73.46087 6.678261-129.113043 42.295652-155.826086v-91.269566c0-13.356522 11.130435-24.486957 24.486957-24.486956h144.695652c13.356522 0 24.486957 11.130435 24.486956 24.486956V-16.695652h523.130435v-75.686957c0-13.356522 11.130435-24.486957 24.486957-24.486956H1135.304348c13.356522 0 24.486957 11.130435 24.486956 24.486956v89.043479c40.069565 26.713043 40.069565 91.269565 40.069566 155.826087l-31.165218 240.417391z m-240.417391 111.304348c-4.452174-44.521739-44.521739-75.686957-89.043478-71.234783-6.678261 0-13.356522 2.226087-20.034783 4.452174l-53.426087-44.521739L890.434783 250.434783l-60.104348-51.2-124.66087 142.469565-51.2-44.521739c2.226087-8.904348 4.452174-20.034783 2.226087-31.165218-4.452174-42.295652-42.295652-73.46087-84.591304-71.234782l24.486956 42.295652-24.486956 35.617391-28.939131-8.904348-31.165217-37.843478c-13.356522 15.582609-20.034783 35.617391-17.808696 57.878261 4.452174 44.521739 44.521739 75.686957 89.043479 71.234783 6.678261 0 11.130435-2.226087 17.808695-4.452174l55.652174 46.747826-42.295652 48.973913-51.2-42.295652c-11.130435-8.904348-26.713043-8.904348-37.843478 2.226087L467.478261 475.269565c-8.904348 11.130435-8.904348 26.713043 2.226087 37.843478l151.373913 129.113044c11.130435 8.904348 26.713043 8.904348 37.843478-2.226087l60.104348-69.008696c8.904348-11.130435 8.904348-26.713043-2.226087-37.843478l-40.069565-33.391304 44.521739-48.973913 53.426087 44.521739c-2.226087 8.904348-4.452174 20.034783-2.226087 31.165217 4.452174 42.295652 42.295652 73.46087 84.591304 71.234783l-24.486956-42.295652 24.486956-35.617392 28.939131 8.904348 31.165217 40.069565c6.678261-22.26087 13.356522-42.295652 11.130435-64.556521z m0 0"  horiz-adv-x="1335" />

    
    <glyph glyph-name="shouyeweixuanzhong1" unicode="&#58918;" d="M734.608696 875.965217c-31.165217 26.713043-77.913043 26.713043-106.852174 0L189.217391 459.686957c-15.582609-15.582609-17.808696-40.069565-2.226087-55.652174 15.582609-15.582609 40.069565-17.808696 55.652174-2.226087l6.678261 6.678261v-431.86087c0-22.26087 8.904348-42.295652 24.486957-57.878261 15.582609-15.582609 35.617391-24.486957 57.878261-24.486956h233.73913V136.904348c0 15.582609 6.678261 28.93913 15.582609 40.069565 11.130435 11.130435 24.486957 15.582609 40.069565 15.582609h111.304348c15.582609 0 28.93913-6.678261 40.069565-15.582609 11.130435-11.130435 15.582609-24.486957 15.582609-40.069565V-105.73913h240.417391c22.26087 0 42.295652 8.904348 57.878261 24.486956 15.582609 15.582609 24.486957 35.617391 24.486956 57.878261V401.808696c17.808696-15.582609 42.295652-15.582609 57.878261 2.226087 6.678261 8.904348 11.130435 17.808696 11.130435 28.93913s-4.452174 20.034783-13.356522 28.93913L734.608696 875.965217z m0 0"  horiz-adv-x="1335" />

    
    <glyph glyph-name="wodeweixuanzhong" unicode="&#58919;" d="M678.956522 640m-256 0a256 256 0 1 1 512 0 256 256 0 1 1-512 0ZM912.695652-105.73913H445.217391c-122.434783 0-222.608696 100.173913-222.608695 222.608695s100.173913 222.608696 222.608695 222.608696h467.478261c122.434783 0 222.608696-100.173913 222.608696-222.608696s-100.173913-222.608696-222.608696-222.608695z"  horiz-adv-x="1335" />

    
    <glyph glyph-name="chefuweixuanzhong1" unicode="&#58920;" d="M1168.695652 392.904348c44.521739 35.617391 55.652174 100.173913 55.652174 100.173913h-66.782609L1121.947826 811.408696C1110.817391 869.286957 1068.521739 896 1015.095652 896H387.33913c-53.426087 0-93.495652-28.93913-106.852173-84.591304L244.869565 493.078261H180.313043s11.130435-62.330435 53.426087-97.947826L207.026087 154.713043c0-73.46087 6.678261-129.113043 42.295652-155.826086v-91.269566c0-13.356522 11.130435-24.486957 24.486957-24.486956h144.695652c13.356522 0 24.486957 11.130435 24.486956 24.486956V-16.695652h523.130435v-75.686957c0-13.356522 11.130435-24.486957 24.486957-24.486956H1135.304348c13.356522 0 24.486957 11.130435 24.486956 24.486956v89.043479c40.069565 26.713043 40.069565 91.269565 40.069566 155.826087l-31.165218 240.417391z m-240.417391 111.304348c-4.452174-44.521739-44.521739-75.686957-89.043478-71.234783-6.678261 0-13.356522 2.226087-20.034783 4.452174l-53.426087-44.521739L890.434783 250.434783l-60.104348-51.2-124.66087 142.469565-51.2-44.521739c2.226087-8.904348 4.452174-20.034783 2.226087-31.165218-4.452174-42.295652-42.295652-73.46087-84.591304-71.234782l24.486956 42.295652-24.486956 35.617391-28.939131-8.904348-31.165217-37.843478c-13.356522 15.582609-20.034783 35.617391-17.808696 57.878261 4.452174 44.521739 44.521739 75.686957 89.043479 71.234783 6.678261 0 11.130435-2.226087 17.808695-4.452174l55.652174 46.747826-42.295652 48.973913-51.2-42.295652c-11.130435-8.904348-26.713043-8.904348-37.843478 2.226087L467.478261 475.269565c-8.904348 11.130435-8.904348 26.713043 2.226087 37.843478l151.373913 129.113044c11.130435 8.904348 26.713043 8.904348 37.843478-2.226087l60.104348-69.008696c8.904348-11.130435 8.904348-26.713043-2.226087-37.843478l-40.069565-33.391304 44.521739-48.973913 53.426087 44.521739c-2.226087 8.904348-4.452174 20.034783-2.226087 31.165217 4.452174 42.295652 42.295652 73.46087 84.591304 71.234783l-24.486956-42.295652 24.486956-35.617392 28.939131 8.904348 31.165217 40.069565c6.678261-22.26087 13.356522-42.295652 11.130435-64.556521z m0 0"  horiz-adv-x="1335" />

    
    <glyph glyph-name="dianpuweixuanzhong1" unicode="&#58921;" d="M676.730435 372.869565c-6.678261-17.808696-6.678261-31.165217-8.904348-42.295652-40.069565-13.356522-71.234783-51.2-71.234783-95.721739v-347.269565H556.521739c-209.252174 0-436.313043 26.713043-436.313043 142.469565v31.165217c0 84.591304 155.826087 171.408696 287.165217 218.156522 8.904348 4.452174 55.652174 28.93913 28.93913 93.495652-64.556522 66.782609-115.756522 173.634783-115.756521 278.26087 0 162.504348 106.852174 244.869565 233.73913 244.869565s233.73913-84.591304 233.739131-244.869565c2.226087-106.852174-46.747826-211.478261-111.304348-278.26087z m0 0M1197.634783 101.286957h-4.452174l-66.782609 189.217391c-11.130435 33.391304-44.521739 57.878261-80.13913 57.878261H796.93913c-35.617391 0-69.008696-22.26087-80.13913-57.878261l-66.782609-189.217391H645.565217c-15.582609 0-26.713043-11.130435-26.713043-26.713044s11.130435-26.713043 26.713043-26.713043h4.452174v-129.113044c0-17.808696 13.356522-31.165217 33.391305-31.165217 17.808696 0 33.391304 13.356522 33.391304 31.165217v11.130435h414.052174v-11.130435c0-17.808696 13.356522-31.165217 33.391304-31.165217 17.808696 0 33.391304 13.356522 33.391305 31.165217v129.113044h4.452174c15.582609 0 26.713043 11.130435 26.713043 26.713043-4.452174 15.582609-15.582609 26.713043-31.165217 26.713044zM768-16.695652c-17.808696 0-33.391304 13.356522-33.391304 31.165217 0 17.808696 15.582609 31.165217 33.391304 31.165218s33.391304-13.356522 33.391304-31.165218c0-17.808696-15.582609-31.165217-33.391304-31.165217z m320.556522 4.452174c-11.130435-6.678261-22.26087-6.678261-33.391305 0s-15.582609 15.582609-15.582608 28.93913c0 17.808696 15.582609 31.165217 33.391304 31.165218s33.391304-13.356522 33.391304-31.165218c-2.226087-13.356522-8.904348-24.486957-17.808695-28.93913z m-11.130435 120.208695h-311.652174c-28.93913 0-51.2 28.93913-40.069565 57.878261l35.617391 93.495652c8.904348 28.93913 37.843478 46.747826 66.782609 46.747827h186.991304c31.165217 0 55.652174-17.808696 69.008696-46.747827l35.617391-93.495652c8.904348-28.93913-13.356522-57.878261-42.295652-57.878261z m0 0"  horiz-adv-x="1335" />

    
    <glyph glyph-name="shouyexuanzhong1" unicode="&#58922;" d="M734.608696 875.965217c-31.165217 26.713043-77.913043 26.713043-106.852174 0L189.217391 459.686957c-15.582609-15.582609-17.808696-40.069565-2.226087-55.652174 15.582609-15.582609 40.069565-17.808696 55.652174-2.226087l6.678261 6.678261v-431.86087c0-22.26087 8.904348-42.295652 24.486957-57.878261 15.582609-15.582609 35.617391-24.486957 57.878261-24.486956h233.73913V136.904348c0 15.582609 6.678261 28.93913 15.582609 40.069565 11.130435 11.130435 24.486957 15.582609 40.069565 15.582609h111.304348c15.582609 0 28.93913-6.678261 40.069565-15.582609 11.130435-11.130435 15.582609-24.486957 15.582609-40.069565V-105.73913h240.417391c22.26087 0 42.295652 8.904348 57.878261 24.486956 15.582609 15.582609 24.486957 35.617391 24.486956 57.878261V401.808696c17.808696-15.582609 42.295652-15.582609 57.878261 2.226087 6.678261 8.904348 11.130435 17.808696 11.130435 28.93913s-4.452174 20.034783-13.356522 28.93913L734.608696 875.965217z m0 0"  horiz-adv-x="1335" />

    
    <glyph glyph-name="wodexuanzhong" unicode="&#58923;" d="M678.956522 640m-256 0a256 256 0 1 1 512 0 256 256 0 1 1-512 0ZM912.695652-105.73913H445.217391c-122.434783 0-222.608696 100.173913-222.608695 222.608695s100.173913 222.608696 222.608695 222.608696h467.478261c122.434783 0 222.608696-100.173913 222.608696-222.608696s-100.173913-222.608696-222.608696-222.608695z"  horiz-adv-x="1335" />

    
    <glyph glyph-name="woyaomaicheweixuanzhong" unicode="&#58924;" d="M20.034783 824.765217v-594.365217h890.434782V824.765217c2.226087 15.582609-11.130435 26.713043-24.486956 26.713044H46.747826C33.391304 851.478261 20.034783 840.347826 20.034783 824.765217z m0 0M509.773913 34.504348h391.791304v2.226087c0 8.904348 4.452174 42.295652 6.678261 51.2 8.904348 33.391304 53.426087 126.886957 169.182609 126.886956 117.982609 0 158.052174-93.495652 169.182609-126.886956 2.226087-8.904348 6.678261-42.295652 6.678261-51.2v-2.226087h28.93913c15.582609 0 26.713043 11.130435 26.713043 26.713043v138.017392c0 6.678261-2.226087 13.356522-6.67826 17.808695v200.347826c0 155.826087-102.4 235.965217-106.852174 240.417392-4.452174 4.452174-11.130435 4.452174-15.582609 4.452174h-215.930435c-8.904348 0-15.582609-4.452174-20.034782-8.904348v-442.991305c0-11.130435-6.678261-17.808696-17.808696-17.808695H418.504348c86.817391-31.165217 91.269565-120.208696 91.269565-158.052174z m483.06087 418.504348v158.052174h178.086956c17.808696-15.582609 66.782609-69.008696 77.913044-158.052174H992.834783z m0 0M75.686957 201.46087v-140.243479c0-15.582609 11.130435-26.713043 26.713043-26.713043h55.652174c-11.130435 82.365217 64.556522 158.052174 106.852174 166.956522H75.686957z m0 0M1079.652174 179.2c77.913043 0 142.469565-64.556522 142.469565-142.469565S1157.565217-105.73913 1079.652174-105.73913c-77.913043 0-142.469565 64.556522-142.469565 142.469565s64.556522 142.469565 142.469565 142.469565z m-66.782609-142.469565c0-35.617391 28.93913-64.556522 64.556522-64.556522 35.617391 0 64.556522 28.93913 64.556522 64.556522 0 35.617391-28.93913 64.556522-64.556522 64.556522-33.391304 2.226087-64.556522-26.713043-64.556522-64.556522z m0 0M336.13913 179.2c77.913043 0 142.469565-64.556522 142.469566-142.469565S414.052174-105.73913 336.13913-105.73913c-77.913043 0-142.469565 64.556522-142.469565 142.469565s64.556522 142.469565 142.469565 142.469565z m-66.782608-142.469565c0-35.617391 28.93913-64.556522 64.556521-64.556522s64.556522 28.93913 64.556522 64.556522c0 35.617391-28.93913 64.556522-64.556522 64.556522s-64.556522-26.713043-64.556521-64.556522z m0 0"  horiz-adv-x="1335" />

    
    <glyph glyph-name="woyaomaichexuanzhong" unicode="&#58925;" d="M22.26087 824.765217v-594.365217h890.434782V824.765217c0 15.582609-11.130435 26.713043-26.713043 26.713044H48.973913C33.391304 851.478261 22.26087 840.347826 22.26087 824.765217z m0 0M512 34.504348h391.791304v2.226087c0 8.904348 4.452174 42.295652 6.678261 51.2 8.904348 33.391304 53.426087 126.886957 169.182609 126.886956 117.982609 0 158.052174-93.495652 169.182609-126.886956 2.226087-8.904348 6.678261-42.295652 6.67826-51.2v-2.226087h28.939131c15.582609 0 26.713043 11.130435 26.713043 26.713043v138.017392c0 6.678261-2.226087 13.356522-6.67826 17.808695v200.347826c0 155.826087-102.4 235.965217-106.852174 240.417392-4.452174 4.452174-11.130435 4.452174-15.582609 4.452174h-215.930435c-8.904348 0-15.582609-4.452174-20.034782-8.904348v-442.991305c0-11.130435-6.678261-17.808696-17.808696-17.808695H420.730435C505.321739 161.391304 512 72.347826 512 34.504348z m483.06087 418.504348v158.052174h178.086956c17.808696-15.582609 66.782609-69.008696 77.913044-158.052174H995.06087z m0 0M75.686957 201.46087v-140.243479c0-15.582609 11.130435-26.713043 26.713043-26.713043h55.652174c-11.130435 82.365217 64.556522 158.052174 106.852174 166.956522H75.686957z m0 0M1079.652174 179.2c77.913043 0 142.469565-64.556522 142.469565-142.469565S1157.565217-105.73913 1079.652174-105.73913c-77.913043 0-142.469565 64.556522-142.469565 142.469565s64.556522 142.469565 142.469565 142.469565z m-64.556522-142.469565c0-35.617391 28.93913-64.556522 64.556522-64.556522 35.617391 0 64.556522 28.93913 64.556522 64.556522 0 35.617391-28.93913 64.556522-64.556522 64.556522-35.617391 2.226087-64.556522-26.713043-64.556522-64.556522z m0 0M336.13913 179.2c77.913043 0 142.469565-64.556522 142.469566-142.469565S414.052174-105.73913 336.13913-105.73913c-77.913043 0-142.469565 64.556522-142.469565 142.469565s64.556522 142.469565 142.469565 142.469565z m-64.556521-142.469565c0-35.617391 28.93913-64.556522 64.556521-64.556522s64.556522 28.93913 64.556522 64.556522c0 35.617391-28.93913 64.556522-64.556522 64.556522s-64.556522-26.713043-64.556521-64.556522z m0 0"  horiz-adv-x="1335" />

    
    <glyph glyph-name="jiancequeding" unicode="&#58907;" d="M528.384 867.328C253.952 867.328 28.672 642.048 28.672 367.616S253.952-128 528.384-128 1024 93.184 1024 367.616C1024 642.048 802.816 867.328 528.384 867.328z m282.624-352.256l-344.064-344.064c-8.192-8.192-20.48-12.288-32.768-12.288h-4.096-4.096c-12.288 0-28.672 4.096-32.768 12.288L241.664 322.56c-16.384 16.384-16.384 40.96 0 57.344 8.192 8.192 16.384 12.288 28.672 12.288 12.288 0 20.48-4.096 28.672-12.288l126.976-126.976s4.096-4.096 8.192-4.096 4.096 0 8.192 4.096L757.76 568.32c8.192 8.192 16.384 12.288 28.672 12.288 12.288 0 20.48-4.096 28.672-12.288 8.192-8.192 12.288-16.384 12.288-28.672-4.096-8.192-8.192-16.384-16.384-24.576z m0 0"  horiz-adv-x="1024" />

    
    <glyph glyph-name="jiancefengxian" unicode="&#58926;" d="M532.48 855.04C262.144 855.04 40.96 633.856 40.96 363.52s221.184-491.52 491.52-491.52 491.52 221.184 491.52 491.52S802.816 855.04 532.48 855.04z m-45.056-229.376c0 24.576 20.48 45.056 45.056 45.056 24.576 0 45.056-20.48 45.056-45.056v-339.968c0-24.576-20.48-45.056-45.056-45.056-24.576 0-45.056 20.48-45.056 45.056V625.664zM532.48 56.32c-32.768 0-61.44 28.672-61.44 61.44s28.672 61.44 61.44 61.44 61.44-28.672 61.44-61.44-28.672-61.44-61.44-61.44z m0 0"  horiz-adv-x="1024" />

    
    <glyph glyph-name="xiangqingzuixialipin" unicode="&#58927;" d="M1072.046921 574.686217c0 39.038123-33.032258 72.070381-75.073314 72.070381h-54.052786c33.032258 30.029326 54.052786 72.070381 54.052786 120.117302 0 60.058651-39.038123 129.1261-144.140762 129.1261-138.134897-3.002933-252.246334-141.13783-309.302053-219.214076C489.478006 754.86217 369.360704 892.997067 231.225806 892.997067 126.123167 892.997067 87.085044 826.932551 87.085044 763.870968c0-51.049853 21.020528-90.087977 57.055718-120.117302H87.085044C45.043988 643.753666 12.01173 610.721408 12.01173 571.683284v-210.205278h75.073314v-390.381232c0-39.038123 33.032258-72.070381 75.073314-72.070381h756.739003c42.041056 0 75.073314 33.032258 75.073313 72.070381v390.381232h75.073314v213.208211h3.002933z m-216.211144 246.240469c48.046921 0 69.067449-18.017595 69.067449-57.055718 0-78.076246-93.090909-120.117302-183.178886-120.117302h-129.1261c54.052786 75.073314 147.143695 177.173021 243.237537 177.17302z m-624.609971 0c93.090909 0 192.187683-102.099707 246.24047-177.17302h-129.1261c-87.085044 0-186.181818 42.041056-186.181818 123.120234 0 39.038123 21.020528 54.052786 69.067448 54.052786z m765.747801-387.378299H579.565982v141.13783h417.407625v-141.13783zM87.085044 574.686217h417.407625v-141.13783H87.085044v141.13783z m78.076246-213.208211h339.331379v-390.381232H165.16129v390.381232z m756.739003-387.378299H579.565982v390.381231h342.334311v-390.381231z m0 0"  horiz-adv-x="1141" />

    
    <glyph glyph-name="xiangqingzuixiakefu" unicode="&#58928;" d="M1005.929412 486.4C978.823529 715.294118 786.070588 889.976471 554.164706 889.976471S129.505882 715.294118 102.4 486.4h-3.011765c-45.176471 0-78.305882-36.141176-78.305882-81.317647v-168.658824c0-144.564706 117.458824-265.035294 265.035294-265.035294h216.847059c15.058824-51.2 63.247059-84.329412 117.458823-75.294117 54.211765 6.023529 93.364706 51.2 93.364706 105.411764s-39.152941 99.388235-93.364706 105.411765c-54.211765 6.023529-102.4-24.094118-117.458823-75.294118H283.105882c-114.447059 0-204.8 93.364706-204.8 207.811765v168.658824c0 6.023529 3.011765 12.047059 6.02353 15.058823 3.011765 3.011765 9.035294 6.023529 15.058823 6.02353h66.258824c6.023529 0 12.047059-3.011765 15.058823-6.02353 3.011765-3.011765 6.023529-9.035294 6.02353-15.058823v-240.941177h57.223529v240.941177c0 45.176471-36.141176 81.317647-81.317647 81.317647 24.094118 195.764706 189.741176 343.341176 391.529412 343.341176 198.776471 0 367.435294-147.576471 391.529412-346.352941h-9.035294c-45.176471 0-81.317647-36.141176-81.317648-81.317647v-265.035294c0-45.176471 36.141176-78.305882 78.305883-78.305883h66.258823c45.176471 0 81.317647 36.141176 81.317647 78.305883v265.035294c3.011765 45.176471-33.129412 81.317647-75.294117 81.317647zM605.364706 49.694118c27.105882 0 48.188235-21.082353 48.188235-48.188236 0-27.105882-21.082353-48.188235-48.188235-48.188235-27.105882 0-48.188235 21.082353-48.188235 48.188235 0 12.047059 6.023529 24.094118 15.058823 33.129412 9.035294 9.035294 21.082353 15.058824 33.129412 15.058824z m421.647059 90.352941c0-12.047059-9.035294-21.082353-21.082353-21.082353h-66.258824c-6.023529 0-12.047059 3.011765-15.058823 6.023529-3.011765 3.011765-6.023529 9.035294-6.02353 15.058824v265.035294c0 6.023529 3.011765 12.047059 6.02353 15.058823 3.011765 3.011765 9.035294 6.023529 15.058823 6.02353h66.258824c6.023529 0 12.047059-3.011765 15.058823-6.02353 3.011765-3.011765 6.023529-9.035294 6.02353-15.058823v-265.035294z m0 0"  horiz-adv-x="1144" />

    
    <glyph glyph-name="xiangqingzuixiashoucang" unicode="&#58929;" d="M825.223529-97.882353c-12.047059 0-24.094118 3.011765-36.141176 9.035294l-240.941177 120.470588-243.952941-120.470588c-24.094118-12.047059-57.223529-12.047059-78.305882 6.02353-24.094118 15.058824-36.141176 45.176471-30.117647 75.294117l51.2 262.02353-192.752941 177.694117c-21.082353 21.082353-27.105882 51.2-21.082353 78.305883 9.035294 27.105882 33.129412 48.188235 60.235294 51.2L361.411765 609.882353l120.470588 243.952941C493.929412 877.929412 521.035294 896 548.141176 896c27.105882 0 57.223529-18.070588 66.258824-42.164706l120.470588-240.941176 268.047059-45.176471c27.105882-3.011765 51.2-24.094118 60.235294-51.2 9.035294-27.105882 3.011765-57.223529-18.070588-78.305882l-192.752941-180.705883 48.188235-262.023529c6.023529-30.117647-6.023529-57.223529-30.117647-75.294118-12.047059-12.047059-27.105882-18.070588-45.176471-18.070588z m0 0"  horiz-adv-x="1144" />

    
    <glyph glyph-name="xiangqingzuixiadianpu" unicode="&#58930;" d="M1105.317647 576.752941l-3.011765 6.02353-93.364706 234.917647c-9.035294 24.094118-24.094118 45.176471-45.17647 57.223529-24.094118 15.058824-48.188235 21.082353-75.294118 21.082353H231.905882C204.8 896 180.705882 889.976471 159.623529 874.917647c-21.082353-12.047059-36.141176-30.117647-45.17647-54.211765L12.047059 582.776471c0-3.011765 0-3.011765-3.011765-6.02353L0 540.611765v-30.117647c0-27.105882 6.023529-51.2 15.058824-78.305883 9.035294-24.094118 24.094118-48.188235 42.164705-66.258823 18.070588-18.070588 39.152941-36.141176 60.235295-48.188236 27.105882-15.058824 63.247059-24.094118 102.4-24.094117 66.258824 0 123.482353 27.105882 168.658823 81.317647 42.164706-51.2 99.388235-78.305882 165.647059-78.305882s123.482353 27.105882 165.647059 78.305882c45.176471-51.2 99.388235-78.305882 168.658823-78.305882 12.047059 0 27.105882 0 39.152941 3.011764l36.141177 9.035294c12.047059 3.011765 21.082353 9.035294 33.129412 12.047059 36.141176 18.070588 63.247059 48.188235 84.329411 81.317647 21.082353 36.141176 30.117647 72.282353 30.117647 111.435294 6.023529 15.058824 3.011765 39.152941-6.023529 63.247059z m-135.529412-186.729412l-9.035294-6.023529c-18.070588-9.035294-42.164706-15.058824-66.258823-15.058824-48.188235 0-93.364706 24.094118-120.470589 66.258824-3.011765 6.023529-6.023529 12.047059-9.035294 15.058824-12.047059 12.047059-24.094118 18.070588-39.152941 18.070588-18.070588 0-30.117647-6.023529-39.152941-18.070588-3.011765-6.023529-6.023529-12.047059-9.035294-15.058824-15.058824-21.082353-33.129412-39.152941-51.2-48.188235-21.082353-12.047059-42.164706-18.070588-66.258824-18.070589-15.058824 0-30.117647 3.011765-45.17647 9.035295-15.058824 6.023529-30.117647 12.047059-39.152941 24.094117-12.047059 9.035294-24.094118 24.094118-30.117648 36.141177-3.011765 6.023529-6.023529 9.035294-9.035294 15.058823-9.035294 12.047059-24.094118 18.070588-39.152941 18.070588-18.070588 0-30.117647-3.011765-39.152941-15.058823-6.023529-6.023529-9.035294-9.035294-12.047059-15.058824-27.105882-42.164706-66.258824-66.258824-117.458823-66.258823-27.105882 0-48.188235 6.023529-66.258824 15.058823-24.094118 12.047059-42.164706 30.117647-54.211765 51.2-12.047059 21.082353-21.082353 45.176471-21.082353 72.282353v9.035294c0 6.023529 0 12.047059 3.011765 18.070589v6.023529c0 3.011765 3.011765 6.023529 3.011765 9.035294v3.011765l99.388235 234.917647v3.011765l3.011765 3.011764c0 3.011765 3.011765 3.011765 3.011765 6.02353 0 0 3.011765 0 3.011764 3.011765 3.011765 0 3.011765 3.011765 6.02353 3.011764 3.011765 3.011765 6.023529 3.011765 9.035294 3.011765H888.470588c21.082353 0 36.141176-9.035294 45.176471-27.105882l93.364706-231.905883v-6.023529c6.023529-15.058824 9.035294-30.117647 9.035294-45.176471 0-48.188235-21.082353-87.341176-66.258824-114.447059z m51.2-144.564705c3.011765-3.011765 6.023529-9.035294 6.02353-12.047059 3.011765-6.023529 3.011765-9.035294 3.011764-15.058824v-216.847059c0-30.117647-9.035294-54.211765-30.117647-72.282353-21.082353-21.082353-45.176471-30.117647-72.282353-30.117647h-752.941176c-27.105882 0-51.2 9.035294-72.282353 30.117647-18.070588 18.070588-30.117647 45.176471-30.117647 72.282353v213.835294c0 12.047059 3.011765 21.082353 12.047059 30.117648 9.035294 9.035294 18.070588 12.047059 30.117647 12.047058s21.082353-3.011765 30.117647-12.047058c3.011765-9.035294 6.023529-12.047059 6.023529-18.070589 3.011765-6.023529 3.011765-9.035294 3.011765-15.058823v-213.835294c0-6.023529 3.011765-12.047059 6.023529-15.058824 3.011765-3.011765 9.035294-6.023529 15.058824-6.023529h752.941176c6.023529 0 12.047059 3.011765 15.058824 6.023529 3.011765 3.011765 6.023529 9.035294 6.023529 15.058824v216.847058c0 12.047059 3.011765 21.082353 12.047059 30.117648 9.035294 9.035294 18.070588 12.047059 30.117647 12.047058 6.023529 0 9.035294 0 15.058824-3.011764s12.047059-6.023529 15.058823-9.035294z m-150.588235 373.458823c12.047059 0 21.082353-3.011765 30.117647-12.047059 9.035294-6.023529 12.047059-18.070588 12.047059-30.117647s-3.011765-21.082353-12.047059-30.117647c-9.035294-9.035294-18.070588-12.047059-30.117647-12.047059H231.905882c-6.023529 0-12.047059 0-15.058823 3.011765-6.023529 3.011765-9.035294 6.023529-12.047059 9.035294-9.035294 9.035294-12.047059 18.070588-12.047059 30.117647s3.011765 21.082353 12.047059 27.105883c9.035294 9.035294 18.070588 12.047059 30.117647 12.047058h635.482353z m0 0"  horiz-adv-x="1144" />

    
    <glyph glyph-name="xiangqingzuixiaweishoucang" unicode="&#58931;" d="M807.152941-97.882353c-15.058824 0-30.117647 3.011765-45.17647 12.047059L545.129412 22.588235l-216.847059-108.423529c-15.058824-6.023529-30.117647-12.047059-45.176471-12.047059-21.082353 0-42.164706 6.023529-57.223529 18.070588-30.117647 24.094118-45.176471 63.247059-39.152941 99.388236l45.17647 231.905882L60.235294 411.105882c-27.105882 27.105882-36.141176 66.258824-27.105882 102.4 12.047059 36.141176 42.164706 63.247059 81.317647 69.270589L352.376471 624.941176l105.411764 216.847059C475.858824 874.917647 508.988235 896 545.129412 896c39.152941 0 75.294118-24.094118 90.352941-57.223529L740.894118 624.941176l237.929411-42.164705c36.141176-6.023529 69.270588-33.129412 78.305883-69.270589 12.047059-36.141176 3.011765-75.294118-24.094118-102.4l-168.658823-159.623529 42.164705-231.905882c6.023529-36.141176-9.035294-75.294118-39.152941-96.376471-18.070588-15.058824-39.152941-21.082353-60.235294-21.082353z m-262.023529 183.717647l240.941176-120.470588c6.023529-3.011765 15.058824-6.023529 21.082353-6.02353 9.035294 0 18.070588 3.011765 21.082353 9.035295 15.058824 9.035294 21.082353 27.105882 18.070588 42.164705l-48.188235 262.02353 192.752941 180.705882c12.047059 12.047059 15.058824 30.117647 12.047059 45.176471v3.011765c-3.011765 15.058824-18.070588 27.105882-33.129412 27.105882l-265.035294 45.17647-120.470588 243.952942c-6.023529 15.058824-21.082353 24.094118-36.141177 24.094117s-30.117647-9.035294-39.152941-24.094117l-117.458823-240.941177-268.047059-48.188235c-15.058824-3.011765-30.117647-12.047059-36.141177-30.117647-3.011765-15.058824 0-33.129412 12.047059-45.176471l192.752941-177.694117L240.941176 10.541176c-3.011765-15.058824 3.011765-33.129412 18.070589-42.164705 6.023529-6.023529 15.058824-9.035294 24.094117-9.035295 6.023529 0 15.058824 3.011765 18.070589 6.02353l243.952941 120.470588z m0 0"  horiz-adv-x="1144" />

    
    <glyph glyph-name="jiancezhaopian" unicode="&#58932;" d="M1075.2 853.333333H119.466667C55.466667 853.333333 0 797.866667 0 733.866667v-716.8c0-64 55.466667-119.466667 119.466667-119.466667h955.733333c64 0 119.466667 55.466667 119.466667 119.466667V733.866667C1194.666667 797.866667 1139.2 853.333333 1075.2 853.333333z m38.4-571.733333c-59.733333 21.333333-128 12.8-174.933333-34.133333l-106.666667-106.666667c-4.266667 4.266667-4.266667 4.266667-4.266667 8.533333l-337.066666 337.066667c-64 64-162.133333 64-226.133334 0l-183.466666-183.466667V652.8c0 64 55.466667 119.466667 119.466666 119.466667h797.866667c64 0 119.466667-55.466667 119.466667-119.466667v-371.2z m-256 371.2c-76.8 0-140.8-64-140.8-140.8 0-76.8 64-140.8 140.8-140.8 76.8 0 140.8 64 140.8 140.8-4.266667 81.066667-64 140.8-140.8 140.8z m0 0"  horiz-adv-x="1194" />

    
    <glyph glyph-name="jiantou" unicode="&#58933;" d="M779.377778 321.422222l-426.666667-409.6c-62.577778-56.888889-142.222222 34.133333-85.333333 91.022222 125.155556 119.466667 256 238.933333 381.155555 369.777778L267.377778 748.088889C204.8 810.666667 295.822222 896 352.711111 839.111111l426.666667-426.666667c22.755556-22.755556 22.755556-68.266667 0-91.022222z m0 0"  horiz-adv-x="1024" />

    
    <glyph glyph-name="-shouyesousuojiantou" unicode="&#58934;" d="M921.445842-111.92722c46.072292-27.643375 101.359043-18.428917 129.002418 18.428917L1815.248309 708.159579c46.072292 46.072292 36.857834 110.573501 0 156.645793-46.072292 46.072292-110.573501 36.857834-156.645793 0l-681.869923-718.727756L276.433753 855.590914c-46.072292 46.072292-110.573501 46.072292-156.645794 0-18.428917-18.428917-27.643375-46.072292-27.643375-73.715667 0-27.643375 9.214458-55.286751 27.643375-73.715668l764.800049-792.443424h9.214459c9.214458-18.428917 18.428917-27.643375 27.643375-27.643375z m0 0"  horiz-adv-x="1935" />

    
    <glyph glyph-name="sousuolaji" unicode="&#58935;" d="M618.666667 123.733333c-8.533333 0-17.066667 4.266667-25.6 8.533334-8.533333 8.533333-8.533333 17.066667-8.533334 25.6v384c0 8.533333 4.266667 17.066667 8.533334 25.6 8.533333 8.533333 17.066667 8.533333 25.6 8.533333 8.533333 0 17.066667-4.266667 25.6-8.533333 8.533333-8.533333 8.533333-17.066667 8.533333-25.6v-384c0-8.533333-4.266667-17.066667-8.533333-25.6-8.533333-4.266667-17.066667-8.533333-25.6-8.533334z m-213.333334 0c-8.533333 0-17.066667 4.266667-25.6 8.533334-8.533333 8.533333-8.533333 17.066667-8.533333 25.6v384c0 8.533333 4.266667 17.066667 8.533333 25.6 8.533333 8.533333 17.066667 12.8 25.6 12.8 8.533333 0 17.066667-4.266667 25.6-8.533334 8.533333-8.533333 12.8-17.066667 12.8-25.6v-384c0-8.533333-4.266667-17.066667-8.533333-25.6-8.533333-8.533333-17.066667-12.8-29.866667-12.8z m563.2 597.333334h-174.933333V789.333333C793.6 849.066667 746.666667 896 686.933333 896H337.066667C277.333333 896 230.4 849.066667 230.4 789.333333v-68.266666H55.466667c-8.533333 0-17.066667-4.266667-25.6-8.533334-4.266667-8.533333-8.533333-17.066667-8.533334-25.6 0-8.533333 4.266667-17.066667 8.533334-25.6 8.533333-8.533333 17.066667-8.533333 25.6-8.533333h913.066666c8.533333 0 17.066667 4.266667 25.6 8.533333 4.266667 4.266667 8.533333 17.066667 8.533334 25.6 0 8.533333-4.266667 17.066667-8.533334 25.6-8.533333 4.266667-17.066667 8.533333-25.6 8.533334zM302.933333 789.333333c0 21.333333 17.066667 34.133333 34.133334 34.133334h349.866666c17.066667 0 34.133333-17.066667 34.133334-34.133334v-68.266666H302.933333V789.333333zM759.466667-85.333333H268.8c-59.733333 0-106.666667 46.933333-106.666667 106.666666V546.133333c0 21.333333 17.066667 34.133333 34.133334 34.133334 21.333333 0 34.133333-17.066667 34.133333-34.133334v-524.8c0-21.333333 17.066667-34.133333 34.133333-34.133333h490.666667c21.333333 0 34.133333 17.066667 34.133333 34.133333V546.133333c0 21.333333 17.066667 34.133333 34.133334 34.133334 21.333333 0 34.133333-17.066667 34.133333-34.133334v-524.8c4.266667-59.733333-42.666667-106.666667-98.133333-106.666666z m0 0"  horiz-adv-x="1024" />

    
    <glyph glyph-name="tianjia" unicode="&#58936;" d="M81.213793 458.151724h882.758621c31.77931 0 60.027586-28.248276 60.027586-60.027586 0-31.77931-28.248276-60.027586-60.027586-60.027586h-882.758621c-31.77931 0-60.027586 28.248276-60.027586 60.027586 0 35.310345 24.717241 60.027586 60.027586 60.027586z m0 0M582.62069 835.972414v-882.758621c0-31.77931-28.248276-60.027586-60.027587-60.027586-31.77931 0-60.027586 28.248276-60.027586 60.027586v882.758621c0 31.77931 28.248276 60.027586 60.027586 60.027586 31.77931 0 60.027586-28.248276 60.027587-60.027586z m0 0"  horiz-adv-x="1024" />

    
    <glyph glyph-name="paizhao" unicode="&#58937;" d="M1143.466667-110.933333h-1058.133334C37.546667-110.933333 0-73.386667 0-25.6V643.413333C0 691.2 37.546667 728.746667 85.333333 728.746667H341.333333s-3.413333 3.413333-3.413333 61.44S385.706667 896 443.733333 896h341.333334c58.026667 0 105.813333-47.786667 105.813333-105.813333 0-58.026667 3.413333-61.44 3.413333-61.44h252.586667C1191.253333 728.746667 1228.8 691.2 1228.8 643.413333v-672.426666c0-44.373333-37.546667-81.92-85.333333-81.92z m-525.653334 167.253333c139.946667 0 252.586667 112.64 252.586667 252.586667 0 139.946667-112.64 252.586667-252.586667 252.586666-139.946667 0-252.586667-112.64-252.586666-252.586666-3.413333-139.946667 109.226667-252.586667 252.586666-252.586667z m0 0"  horiz-adv-x="1228" />

    
    <glyph glyph-name="paizhaotianjia" unicode="&#58938;" d="M512-128C229.574194-128 0 101.574194 0 384S229.574194 896 512 896s512-229.574194 512-512-229.574194-512-512-512z m0 959.587097C264.258065 831.587097 64.412903 631.741935 64.412903 384 64.412903 136.258065 264.258065-63.587097 512-63.587097S959.587097 136.258065 959.587097 384C959.587097 631.741935 759.741935 831.587097 512 831.587097z m191.587097-478.967742h-160.206452v-160.206452c0-18.167742-14.864516-31.380645-31.380645-31.380645-18.167742 0-31.380645 14.864516-31.380645 31.380645v160.206452h-160.206452c-18.167742 0-31.380645 14.864516-31.380645 31.380645 0 18.167742 14.864516 31.380645 31.380645 31.380645h160.206452v160.206452c0 18.167742 14.864516 31.380645 31.380645 31.380645 18.167742 0 31.380645-14.864516 31.380645-31.380645v-160.206452h160.206452c18.167742 0 31.380645-14.864516 31.380645-31.380645 1.651613-18.167742-13.212903-31.380645-31.380645-31.380645z m0 0"  horiz-adv-x="1024" />

    
    <glyph glyph-name="shipin" unicode="&#58939;" d="M1204.906667 708.266667C1177.6 725.333333 962.56 622.933333 962.56 622.933333v10.24C962.56 721.92 887.466667 793.6 798.72 793.6H163.84C75.093333 793.6 0 721.92 0 633.173333v-535.893333C0 11.946667 75.093333-59.733333 163.84-59.733333h634.88c92.16 0 163.84 71.68 163.84 160.426666V110.933333s215.04-98.986667 242.346667-81.92c27.306667 17.066667 30.72 658.773333 0 679.253334zM348.16 110.933333V622.933333l416.426667-256L348.16 110.933333z m0 0"  horiz-adv-x="1228" />

    
    <glyph glyph-name="dianpuhuodongjiantou" unicode="&#58940;" d="M819.2-107.52c10.24 0 10.24 0 0 0 51.2-20.48 102.4-10.24 133.12 20.48l757.76 798.72c40.96 40.96 40.96 112.64 0 153.6-40.96 40.96-112.64 40.96-153.6 0l-675.84-716.8-686.08 716.8C153.6 906.24 81.92 906.24 40.96 865.28c-30.72-20.48-40.96-51.2-40.96-81.92 0-30.72 10.24-51.2 30.72-71.68l757.76-788.48c20.48-20.48 30.72-20.48 30.72-30.72z m0 0"  horiz-adv-x="1843" />

    
    <glyph glyph-name="dianpudianhua" unicode="&#58941;" d="M738.931841 457.107565c0-18.574843 13.931132-32.505976 32.505975-32.505976s32.505976 13.931132 32.505976 32.505976c0 116.092771-92.874217 208.966987-208.966987 208.966987-18.574843 0-32.505976-13.931132-32.505976-32.505975 0-18.574843 13.931132-32.505976 32.505976-32.505976 83.586795-4.643711 143.955036-65.011952 143.955036-143.955036z m139.311325 0c0-18.574843 13.931132-32.505976 32.505975-32.505976 18.574843 0 32.505976 13.931132 32.505976 32.505976 0 190.392144-157.886168 348.278312-348.278312 348.278312-18.574843 0-32.505976-13.931132-32.505976-32.505975 0-18.574843 13.931132-32.505976 32.505976-32.505976 157.886168-4.643711 283.266361-130.023903 283.266361-283.266361zM409.228371 577.844047c37.149687 37.149687 41.793397 97.517927 4.643711 139.311325L311.710444 856.466697C279.204468 902.903805 209.548806 907.547516 167.755408 875.04154c-9.287422-4.643711-9.287422-4.643711-9.287422-9.287422l-92.874216-92.874216c-88.230506-88.230506 37.149687-334.34718 269.335228-566.532722 232.185542-232.185542 473.658505-357.565734 561.889011-269.335228l92.874217 92.874216c41.793397 41.793397 41.793397 106.805349 0 143.955036l-4.643711 9.287422-134.667614 106.805349c-41.793397 32.505976-102.161638 32.505976-139.311325-9.287422L650.701335 220.278312c-60.368241 37.149687-116.092771 78.943084-167.17359 130.023904-46.437108 46.437108-88.230506 102.161638-130.023904 167.17359l55.72453 60.368241z m-46.437108 97.517927c9.287422-13.931132 9.287422-37.149687-4.643711-46.437108L283.848179 549.981782c-13.931132-13.931132-13.931132-27.862265-9.287422-41.793398 41.793397-74.299373 92.874217-143.955036 153.242458-204.323277 60.368241-60.368241 130.023903-111.44906 204.323276-153.242457 13.931132-4.643711 32.505976-4.643711 41.793398 9.287422l78.943084 78.943084c13.931132 13.931132 32.505976 13.931132 46.437108 4.643711l134.667615-111.44906s4.643711 0 4.64371-4.643711c4.643711-4.643711 9.287422-13.931132 9.287422-23.218554s-4.643711-18.574843-9.287422-23.218555l-92.874216-92.874216c-46.437108-46.437108-260.047807 69.655662-464.371084 269.335228s-315.772337 422.577686-269.335228 464.371083l97.517928 97.517928c13.931132 9.287422 37.149687 9.287422 46.437108-4.643711l106.805349-139.311325z m0 0"  horiz-adv-x="1024" />

    
    <glyph glyph-name="dianpudizhi" unicode="&#58942;" d="M512 821.527273c139.636364 0 251.345455-111.709091 251.345455-251.345455 0-9.309091-4.654545-251.345455-251.345455-442.181818-246.690909 186.181818-251.345455 428.218182-251.345455 442.181818C260.654545 709.818182 372.363636 821.527273 512 821.527273M512 896C335.127273 896 186.181818 751.709091 186.181818 570.181818c0-176.872727 0-297.890909 302.545455-512 13.963636-9.309091 32.581818-9.309091 41.890909 0C837.818182 272.290909 837.818182 570.181818 837.818182 570.181818c0 181.527273-148.945455 325.818182-325.818182 325.818182z m0 0M512-109.381818c-190.836364 0-512 32.581818-512 153.6C0 104.727273 88.436364 151.272727 256 179.2c18.618182 4.654545 37.236364-9.309091 41.890909-32.581818 4.654545-18.618182-9.309091-37.236364-32.581818-41.890909-139.636364-18.618182-186.181818-51.2-195.490909-60.509091C93.090909 11.636364 251.345455-34.909091 512-34.909091s418.909091 51.2 437.527273 79.127273c-9.309091 13.963636-55.854545 41.890909-195.490909 65.163636-13.963636 0-23.272727 9.309091-27.927273 23.272727-4.654545 13.963636-4.654545 27.927273 4.654545 37.236364 9.309091 9.309091 23.272727 13.963636 32.581819 13.963636 172.218182-27.927273 256-69.818182 256-134.981818 4.654545-125.672727-316.509091-158.254545-507.345455-158.254545z m0 530.618182c-88.436364 0-162.909091 69.818182-162.909091 162.909091C349.090909 672.581818 418.909091 747.054545 512 747.054545c88.436364 0 162.909091-69.818182 162.909091-162.90909s-74.472727-162.909091-162.909091-162.909091z m0 246.690909c-51.2 0-88.436364-41.890909-88.436364-88.436364 0-51.2 41.890909-88.436364 88.436364-88.436364s88.436364 41.890909 88.436364 88.436364c0 23.272727-9.309091 46.545455-27.927273 65.163636-13.963636 13.963636-37.236364 23.272727-60.509091 23.272728z m0 0"  horiz-adv-x="1024" />

    
    <glyph glyph-name="dianpuxiangqingdianhua" unicode="&#58943;" d="M734.235312 449.160096c0-21.917472 14.611648-36.52912 36.52912-36.52912s36.52912 14.611648 36.529121 36.52912c0 116.893184-94.975712 211.868896-211.868897 211.868896-21.917472 0-36.52912-14.611648-36.52912-36.52912s14.611648-36.52912 36.52912-36.52912c76.711152 3.652912 138.810656-58.446592 138.810656-138.810656z m142.463569 0c0-21.917472 14.611648-36.52912 36.52912-36.52912s36.52912 14.611648 36.52912 36.52912c0 193.604336-160.728128 354.332464-354.332465 354.332465-21.917472 0-36.52912-14.611648-36.52912-36.52912s14.611648-36.52912 36.52912-36.52912c153.422304 3.652912 281.274224-124.199008 281.274225-281.274225zM398.167408 573.359104c40.182032 40.182032 43.834944 102.281536 7.305824 142.463569l-109.58736 138.810656C259.356752 902.121185 193.604336 909.427009 146.11648 872.897889c-3.652912-3.652912-7.305824-3.652912-7.305824-7.305824L43.834944 770.616353c-91.3228-91.3228 40.182032-339.720816 277.621312-577.160097s482.184384-365.2912 573.507185-277.621312l94.975712 94.975712c43.834944 43.834944 43.834944 109.58736 0 149.769392l-7.305824 7.305824-138.810656 109.58736c-43.834944 36.52912-102.281536 32.876208-142.463569-7.305824l-62.099504-62.099504c-62.099504 40.182032-120.546096 80.364064-171.686864 131.504832-51.140768 51.140768-91.3228 105.934448-131.504832 171.686864l62.099504 62.099504zM347.02664 671.987728c10.958736-14.611648 10.958736-36.52912-3.652912-47.487856L266.662576 544.135808c-10.958736-10.958736-14.611648-29.223296-7.305824-43.834944 40.182032-76.711152 94.975712-146.11648 157.075216-208.215984 62.099504-62.099504 131.504832-113.240272 208.215984-157.075216 14.611648-7.305824 32.876208-3.652912 43.834944 7.305824l80.364064 80.364064c14.611648 14.611648 32.876208 14.611648 47.487856 3.652912l138.810657-113.240272s3.652912 0 3.652912-3.652912c7.305824-7.305824 10.958736-14.611648 10.958736-25.570384 0-10.958736-3.652912-18.26456-10.958736-25.570384L840.169761-36.6772c-47.487856-47.487856-266.662576 69.405328-474.878561 277.621312-208.215984 204.563072-321.456256 431.043616-277.621312 474.878561l98.628624 98.628624c14.611648 10.958736 40.182032 10.958736 51.140768-7.305824l109.58736-135.157745z m0 0"  horiz-adv-x="1024" />

    
    <glyph glyph-name="dianpulianxiren" unicode="&#58944;" d="M637.672727 407.272727c69.818182 46.545455 116.363636 130.327273 116.363637 218.763637 0 148.945455-125.672727 269.963636-274.618182 269.963636C325.818182 896 204.8 774.981818 204.8 626.036364c0-93.090909 51.2-176.872727 121.018182-223.418182-139.636364-60.509091-232.727273-195.490909-232.727273-349.090909C93.090909-81.454545 307.2-128 488.727273-128c181.527273 0 395.636364 46.545455 395.636363 181.527273 0 158.254545-102.4 297.890909-246.690909 353.745454zM283.927273 626.036364c0 102.4 88.436364 190.836364 195.490909 190.836363 107.054545 0 195.490909-83.781818 195.490909-190.836363 0-102.4-88.436364-190.836364-195.490909-190.836364C372.363636 435.2 283.927273 523.636364 283.927273 626.036364z m204.8-674.909091c-190.836364 0-316.509091 51.2-316.509091 102.4 0 167.563636 139.636364 302.545455 316.509091 302.545454 172.218182 0 316.509091-134.981818 316.509091-302.545454 0-51.2-130.327273-102.4-316.509091-102.4z m0 0"  horiz-adv-x="1024" />

    
    <glyph glyph-name="dianpujiantou" unicode="&#58945;" d="M515.657143 888.685714C797.257143 888.685714 1024 661.942857 1024 380.342857S797.257143-128 515.657143-128 7.314286 98.742857 7.314286 380.342857 234.057143 888.685714 515.657143 888.685714z m0-914.285714c223.085714 0 405.942857 182.857143 405.942857 405.942857S738.742857 786.285714 515.657143 786.285714 109.714286 603.428571 109.714286 380.342857s182.857143-405.942857 405.942857-405.942857z m-14.628572 643.657143l204.8-204.8c18.285714-18.285714 18.285714-51.2 0-73.142857l-204.8-204.8c-18.285714-18.285714-51.2-18.285714-73.142857 0-18.285714 18.285714-18.285714 51.2 0 73.142857l168.228572 168.228571-168.228572 168.228572c-18.285714 18.285714-18.285714 51.2 0 73.142857 10.971429 10.971429 21.942857 14.628571 36.571429 14.628571 14.628571 3.657143 25.6-3.657143 36.571428-14.628571z m0 0"  horiz-adv-x="1024" />

    
    <glyph glyph-name="wujiaoxinghui" unicode="&#58946;" d="M992.492308 439.138462l-189.046154-185.107693 43.323077-263.876923c3.938462-27.569231-7.876923-51.2-27.569231-66.953846-19.692308-15.753846-47.261538-15.753846-70.892308-3.938462l-236.307692 126.03077-236.307692-122.092308c-23.630769-11.815385-51.2-11.815385-70.892308 3.938462s-31.507692 39.384615-27.569231 66.953846l43.323077 263.876923-189.046154 185.107692C11.815385 462.769231 7.876923 490.338462 15.753846 513.969231c7.876923 23.630769 27.569231 43.323077 55.138462 47.261538l263.876923 39.384616 118.153846 240.246153c11.815385 23.630769 35.446154 39.384615 63.015385 39.384616 27.569231 0 51.2-15.753846 63.015384-39.384616l118.153846-240.246153 263.876923-39.384616c27.569231-3.938462 47.261538-19.692308 55.138462-47.261538 3.938462-27.569231-3.938462-55.138462-23.630769-74.830769z m0 0"  horiz-adv-x="1024" />

    
    <glyph glyph-name="wujiaoxinghuang" unicode="&#58947;" d="M992.492308 439.138462l-189.046154-185.107693 43.323077-263.876923c3.938462-27.569231-7.876923-51.2-27.569231-66.953846-19.692308-15.753846-47.261538-15.753846-70.892308-3.938462l-236.307692 126.03077-236.307692-122.092308c-23.630769-11.815385-51.2-11.815385-70.892308 3.938462s-31.507692 39.384615-27.569231 66.953846l43.323077 263.876923-189.046154 185.107692C11.815385 462.769231 7.876923 490.338462 15.753846 513.969231c7.876923 23.630769 27.569231 43.323077 55.138462 47.261538l263.876923 39.384616 118.153846 240.246153c11.815385 23.630769 35.446154 39.384615 63.015385 39.384616 27.569231 0 51.2-15.753846 63.015384-39.384616l118.153846-240.246153 263.876923-39.384616c27.569231-3.938462 47.261538-19.692308 55.138462-47.261538 3.938462-27.569231-3.938462-55.138462-23.630769-74.830769z m0 0"  horiz-adv-x="1024" />

    
    <glyph glyph-name="tixing" unicode="&#58948;" d="M524.8 828.8c-246.4 0-438.4-192-438.4-438.4 0-246.4 192-438.4 438.4-438.4 246.4 0 438.4 192 438.4 438.4 0 246.4-192 438.4-438.4 438.4z m0-790.4c-192 0-352 156.8-352 352 0 192 156.8 352 352 352 192 0 352-156.8 352-352 0-192-156.8-352-352-352z m44.8 368V652.8c0 25.6-16 44.8-44.8 44.8-25.6 0-44.8-16-44.8-44.8v-262.4c0-9.6 9.6-25.6 9.6-35.2l140.8-140.8c9.6-9.6 16-9.6 35.2-9.6 16 0 25.6 0 35.2 9.6 16 16 16 44.8 0 60.8l-131.2 131.2zM323.2 828.8c0 9.6-9.6 16-9.6 25.6-51.2 44.8-140.8 44.8-192 0l-64-60.8c-44.8-51.2-44.8-140.8 0-192 9.6 0 16-9.6 25.6-9.6C128 697.6 217.6 787.2 323.2 828.8zM992 793.6l-64 64c-51.2 51.2-131.2 51.2-185.6 0-6.4-9.6-6.4-19.2-16-28.8 105.6-51.2 192-131.2 236.8-236.8 9.6 9.6 16 9.6 25.6 16 44.8 44.8 44.8 134.4 3.2 185.6zM182.4 22.4l-35.2-35.2c-19.2-19.2-19.2-44.8 0-64 9.6-9.6 16-9.6 35.2-9.6 16 0 25.6 0 35.2 9.6l35.2 35.2c16 16 16 44.8 0 60.8-19.2 19.2-54.4 19.2-70.4 3.2z m684.8 0c-16 16-44.8 16-60.8 0s-16-44.8 0-60.8l35.2-35.2c9.6-9.6 16-9.6 35.2-9.6 16 0 25.6 0 35.2 9.6 16 16 16 44.8 0 60.8l-44.8 35.2z m0 0"  horiz-adv-x="1024" />

    
    <glyph glyph-name="wodeliaotiandianhua" unicode="&#58951;" d="M634.311111 184.888889c2.844444 0 22.755556 14.222222 28.444445 17.066667 11.377778 5.688889 19.911111 11.377778 28.444444 17.066666 65.422222 28.444444 119.466667 8.533333 196.266667-79.644444 45.511111-54.044444 59.733333-102.4 42.666666-145.066667-14.222222-31.288889-39.822222-54.044444-85.333333-82.488889-2.844444-2.844444-28.444444-17.066667-36.977778-19.911111-105.244444-65.422222-349.866667 85.333333-526.222222 341.333333-176.355556 256-221.866667 531.911111-113.777778 597.333334l17.066667 8.533333 14.222222 11.377778C253.155556 884.622222 287.288889 898.844444 329.955556 893.155556c42.666667-5.688889 76.8-36.977778 105.244444-93.866667 62.577778-116.622222 48.355556-173.511111-31.288889-224.711111-5.688889-2.844444-25.6-17.066667-28.444444-17.066667-19.911111-11.377778 14.222222-93.866667 91.022222-207.644444 82.488889-116.622222 147.911111-179.2 167.822222-164.977778z m0 0"  horiz-adv-x="1024" />

    
    <glyph glyph-name="liaotianfatupian" unicode="&#58952;" d="M958.675862 168.606897h-118.289655v114.75862c0 24.717241-19.42069 44.137931-45.903448 44.137931s-45.903448-19.42069-45.903449-44.137931v-120.055172H617.931034c-26.482759 0-45.903448-19.42069-45.903448-44.137931s19.42069-44.137931 45.903448-44.137931h123.586207v-120.055173c0-24.717241 19.42069-44.137931 45.903449-44.137931s45.903448 19.42069 45.903448 44.137931v120.055173h125.351724c26.482759 0 45.903448 19.42069 45.903448 44.137931 7.062069 24.717241-19.42069 49.434483-45.903448 49.434483z m-459.034483-128.882759H98.868966c-7.062069 0-14.124138 1.765517-17.655173 7.062069-5.296552 5.296552-7.062069 12.358621-7.062069 17.655172V779.475862c0 14.124138 10.593103 24.717241 26.482759 24.717241h709.737931c14.124138 0 26.482759-10.593103 26.482758-24.717241v-386.648276c0-14.124138 10.593103-24.717241 26.482759-24.717241 7.062069 0 14.124138 1.765517 17.655172 7.062069 5.296552 5.296552 7.062069 10.593103 7.062069 17.655172V805.958621c0 30.013793-26.482759 54.731034-56.496551 54.731034h-759.172414C44.137931 860.689655 17.655172 835.972414 17.655172 805.958621v-766.234483c0-30.013793 26.482759-54.731034 56.496552-54.731035h427.255173c7.062069 0 14.124138 1.765517 17.655172 7.062069 5.296552 5.296552 7.062069 10.593103 7.062069 17.655173 0 19.42069-10.593103 30.013793-26.482759 30.013793z m-8.827586 135.944828c19.42069 37.075862 65.324138 61.793103 109.462069 61.793103h51.2v56.496552c0 49.434483 31.77931 93.572414 77.682759 112.993103l-63.558621 187.144828L439.613793 313.37931l-65.324138 100.634483L135.944828 175.668966h354.868965z m-116.524138 399.006896c0 31.77931-26.482759 56.496552-60.027586 56.496552-31.77931 0-60.027586-26.482759-60.027586-56.496552 0-31.77931 26.482759-56.496552 60.027586-56.496552 31.77931 0 60.027586 26.482759 60.027586 56.496552z m0 0"  horiz-adv-x="1024" />

    
    <glyph glyph-name="zhucedianputianjia" unicode="&#58954;" d="M447.146667 448.853333V831.146667C447.146667 868.693333 477.866667 896 512 896c34.133333 0 64.853333-27.306667 64.853333-64.853333v-382.293334h382.293334c34.133333 0 64.853333-27.306667 64.853333-64.853333 0-34.133333-27.306667-64.853333-64.853333-64.853333H576.853333v-382.293334c0-34.133333-27.306667-64.853333-64.853333-64.853333-34.133333 0-64.853333 27.306667-64.853333 64.853333V319.146667H64.853333C27.306667 319.146667 0 349.866667 0 384c0 34.133333 27.306667 64.853333 64.853333 64.853333h382.293334z m0 0"  horiz-adv-x="1024" />

    
    <glyph glyph-name="baozhengjinjinggao" unicode="&#58955;" d="M504.685714 610.742857c29.257143 0 51.2-21.942857 51.2-47.542857v-230.4c0-25.6-21.942857-47.542857-51.2-47.542857h-10.971428c-25.6 0-51.2 21.942857-51.2 47.542857V563.2c0 25.6 21.942857 47.542857 51.2 47.542857h10.971428z m-58.514285-431.542857c0 29.257143 21.942857 51.2 51.2 51.2h10.971428c29.257143 0 51.2-21.942857 51.2-51.2v-10.971429c0-29.257143-21.942857-51.2-51.2-51.2h-10.971428c-29.257143 0-51.2 21.942857-51.2 51.2v10.971429z m0 0M493.714286-128C219.428571-128 0 91.428571 0 365.714286S219.428571 859.428571 493.714286 859.428571 987.428571 640 987.428571 365.714286 768-128 493.714286-128z m0 98.742857c219.428571 0 394.971429 175.542857 394.971428 394.971429 0 219.428571-175.542857 394.971429-394.971428 394.971428-219.428571 0-394.971429-175.542857-394.971429-394.971428 0-219.428571 175.542857-394.971429 394.971429-394.971429z m0 0"  horiz-adv-x="1024" />

    
    <glyph glyph-name="liaotianbiaoqing" unicode="&#58956;" d="M494.344828 878.344828C231.282759 878.344828 17.655172 664.717241 17.655172 401.655172s213.627586-476.689655 476.689656-476.689655 476.689655 213.627586 476.689655 476.689655C969.268966 664.717241 757.406897 878.344828 494.344828 878.344828z m0-888.055173C266.593103-9.710345 81.213793 175.668966 81.213793 401.655172 81.213793 629.406897 266.593103 814.786207 494.344828 814.786207c227.751724 0 411.365517-183.613793 411.365517-411.365517S722.096552-9.710345 494.344828-9.710345z m0 0M340.744828 627.641379c-38.841379 0-68.855172-31.77931-68.855173-68.855172 0-38.841379 31.77931-68.855172 68.855173-68.855173s68.855172 31.77931 68.855172 68.855173c1.765517 37.075862-30.013793 68.855172-68.855172 68.855172z m0-91.806896c-12.358621 0-21.186207 10.593103-21.186207 21.186207 0 12.358621 10.593103 21.186207 21.186207 21.186207 12.358621 0 21.186207-10.593103 21.186206-21.186207 1.765517-10.593103-8.827586-21.186207-21.186206-21.186207z m305.434482 91.806896c-38.841379 0-68.855172-31.77931-68.855172-68.855172 0-38.841379 31.77931-68.855172 68.855172-68.855173 38.841379 0 68.855172 31.77931 68.855173 68.855173 0 37.075862-30.013793 68.855172-68.855173 68.855172z m0-91.806896c-12.358621 0-21.186207 10.593103-21.186207 21.186207 0 12.358621 10.593103 21.186207 21.186207 21.186207 12.358621 0 21.186207-10.593103 21.186207-21.186207s-8.827586-21.186207-21.186207-21.186207z m-153.6-367.227586c-93.572414 0-180.082759 42.372414-238.344827 116.524137-10.593103 14.124138-8.827586 35.310345 5.296551 47.668966 14.124138 10.593103 35.310345 8.827586 47.668966-5.296552 44.137931-56.496552 112.993103-90.041379 185.37931-90.041379 74.151724 0 141.241379 33.544828 185.379311 91.806897 10.593103 14.124138 31.77931 17.655172 47.668965 5.296551 14.124138-10.593103 17.655172-31.77931 5.296552-47.668965-56.496552-74.151724-143.006897-118.289655-238.344828-118.289655z m0 0"  horiz-adv-x="1024" />

    
    </font>
</defs>
</svg>
